<?xml version="1.0" encoding="UTF-8"?><svg id="a" xmlns="http://www.w3.org/2000/svg" viewBox="0 0 234.4 235.86"><g id="b"><path d="M217.39,17.45c0,5.72-4.64,10.36-10.37,10.36s-10.37-4.64-10.37-10.36,4.64-10.36,10.37-10.36,10.37,4.64,10.37,10.36ZM212.34,17.47c0-2.91-2.36-5.28-5.28-5.28s-5.28,2.36-5.28,5.28,2.36,5.28,5.28,5.28,5.28-2.36,5.28-5.28Z" style="fill:#383838;"/><circle cx="207.07" cy="17.47" r="5.28" style="fill:#f6f6f6;"/><path d="M134.58,186.44c3.49,3.39,5.2-3.19,6.9-5.26,8.36-10.2,24.25-.59,25.22,11.17,1.39,16.91-17.71,30.8-30.85,37.91-12.17-6.48-28.71-20.67-29.43-35.43s16.23-24.92,26.45-11.85c.77.99,1.14,2.9,1.71,3.45Z" style="fill:#fd4080;"/><path d="M36.48,171.09c1.87-15.79,17.83-19.57,30.39-24,4.25,16.29,25.5,15.84,30.21-.07,13.71,4.22,31.49,7.61,31.26,25.59-9.25-2.94-19.4,1.19-24.05,9.71-4.18,7.66-3.32,15.96.04,23.72,1.16,2.67,2.89,4.71,3.93,7.32h-52.32v-40.45c0-1.86-4.87-1.85-4.87,0v40.45h-14.6v-42.27Z" style="fill:#8972f7;"/><path d="M107.06,108.13c-1.01-2.73-1.82-11.91-4.71-12.68-2.46-.66-6.45,3.99-8.97,5.4-10.33,5.78-20.04,3.35-26.36-6.52-1.56-2.44-3.52-10.06-7.46-7.22-1.28.92-2.88,20.37-3,23.45-1.79.29-2.63-.95-3.54-2.23-5.57-7.81-3.59-29.6,4.1-35.83,4.23-3.42,5.15,3.91,9.18,1.88.83-.42,3.37-4.56,4.47-5.57,1.24-1.14,3.93-2.96,5.6-3.22,21.55-3.33,45.01,22.82,30.69,42.54Z" style="fill:#4b4b4b;"/><path d="M63.84,97.8c.08.07.27,1.19.89,1.83,11.07,11.56,22.11,11.88,35.31,3.03,3.72,8.99,5.07,16.49-1.52,24.62-9.53,11.74-28.81,9.42-35.38-4.13-4.18-8.61-.5-16.09-.5-25.04-.07-.53,1.14-.36,1.21-.3Z" style="fill:#f7d4bd;"/><path d="M71.76,137.94c6.64,2.55,13.28,2.28,20.07.61.21,5.55.54,10.58-4.66,13.89-3.55,2.26-7.25,2.46-10.86.11-1.01-.66-4.56-4.83-4.56-5.79v-8.82Z" style="fill:#f7d4bd;"/><path d="M156.33,101.44c1.62-12.43,11.45-26.69,24.07-29.77,20.14-4.9,33.8,11.88,37.38,29.76-6.87.35-14.11-3.64-17.52-9.55-1.19-2.06-2.34-7.4-4.67-7.47-1.97-.05-5.99,5.6-7.94,7.27-4.36,3.72-15.67,9.75-21.28,9.75h-10.04Z" style="fill:#606060;"/><path d="M195.24,92.95c.09.06.29,1.43.72,2,.82,1.1,1.76,2.46,2.65,3.45,1.18,1.32,6.16,4.87,6.29,5.26.39,1.15.33,11.56.12,13.3-.89,7.27-7.71,13.53-14.93,14.27-16.45,1.69-23.37-9.8-21.32-24.97,6.16-1.67,11.93-3.56,17.32-7.01,1.64-1.05,8.08-7.06,9.15-6.31Z" style="fill:#f7d4bd;"/><path d="M194.66,136.11v10.04c0,4.13,7.75,3.59,8.44,4.64.78,1.2-.42,12.13.08,14.52-6.63-.12-12.49,3.03-16.13,8.5-4.38-5.08-9.63-9.03-16.73-8.5l.03-14.58c1.85-.35,9.1-1.33,9.1-3.37v-11.25c5.28,1.58,9.93,1.37,15.21,0Z" style="fill:#f7d4bd;"/><path d="M228.73,213.36h-14.6c2.65-12.94,10.97-35.53-1.86-45.28-.77-.59-4.22-1.89-4.22-2.47v-13.08c7.04,1.13,14.7,2.46,18.52,9.16.39.69,2.17,4.79,2.17,5.13v46.53Z" style="fill:#f7d4bd;"/><path d="M163.63,106.92v10.64c0,2.05,3.15,8.21,4.48,10.11,1.25,1.79,6.22,5.98,6.37,6.41.27.79.31,10.03.02,10.46-.38.58-5.69,1.51-6.79,1.18-2.18-.65-8.35-8.88-9.49-11.22-.86-1.77-3.12-8.02-3.12-9.66v-17.94h8.52Z" style="fill:#4b4b4b;"/><path d="M218.38,106.92c.87,9.69,1.3,19.26-3.11,28.2-1.33,2.7-7.05,10.66-9.93,10.75-.53.02-4.36-.73-4.62-.92-.84-.59-.86-10.08-.46-11.46.2-.69,4.53-4.44,5.6-5.96,4.56-6.45,4.7-14.21,4.62-21.84l7.9,1.22Z" style="fill:#4b4b4b;"/><path d="M165.45,152.54v13.99c0,.2-2.58.82-3.61,1.56-1.61,1.17-2.42,3.28-3.34,3.95-1.97,1.44-10.48-1.24-13.73.57-1.54-13.52,9.01-18.79,20.68-20.07Z" style="fill:#f7d4bd;"/><path d="M203.78,213.36c-12.74.38-25.57-.28-38.33,0,1.41-3.26,3.71-5.99,4.89-9.4,3.58-10.36,1.26-21.64-7.97-28.04,2.98-7.14,12.85-7.03,17.98-2.09,2.18,2.11,4,9.21,7.18,8.42,1.3-.32,5.3-7.44,7.79-9.28,2.25-1.67,5.64-3.03,8.46-2.79.69,2.41,2.56,4.24,3.52,6.52,5.18,12.3-2.18,24.31-3.52,36.66Z" style="fill:#f6f6f6;"/><path d="M203.78,213.36c1.34-12.35,8.7-24.36,3.52-36.66-.96-2.28-2.82-4.11-3.52-6.52,3.16.26,5.71,1.83,7.42,4.44,7.06,10.78-.18,26.68-2.23,38.15-.78,1.04-3.81.55-5.19.59Z" style="fill:#e6e6e6;"/><path d="M11.37,112.54c1.7-.29,4.77-.39,6.42-.02,1.73.39,4.74,3.62,5.52,3.48.54-.09,1.71-1.78,2.6-2.3,6.89-4.05,16.38,1.45,18.77,8.43,3.73,10.92-3.99,20.63-12.27,26.66-2.83,2.06-7.59,5.8-10.98,4.5-5.85-2.26-16.52-12.19-19.14-17.97-3.83-8.48-1.19-21.03,9.08-22.78ZM13.22,117.38c-6.95.96-8.87,8.51-6.84,14.46,2.33,6.83,11.17,13.61,17.47,16.35,7.98-4.38,19.81-13.86,15.95-24.22-1.66-4.46-6.98-7.84-11.7-5.65-1.91.89-3.14,5.66-5.31,5.65-2.91,0-2.87-7.51-9.57-6.59Z" style="fill:#383838;"/><path d="M13.22,117.38c6.7-.92,6.66,6.58,9.57,6.59,2.18,0,3.4-4.77,5.31-5.65,4.72-2.19,10.04,1.19,11.7,5.65,3.86,10.37-7.98,19.84-15.95,24.22-6.3-2.74-15.14-9.52-17.47-16.35-2.03-5.95-.11-13.51,6.84-14.46Z" style="fill:#fd4080;"/><path d="M83.63,2.3c7.57,9.72,13.1,20.96,20.2,31.03h77.13c15.31.28,40.09,16.06,25.29,32.56-.77.86-4.44,2.8-3.68,3.91,19.11,10.7,22.92,34.19,21.31,54.47-.52,6.62-3.92,14.21-7.94,19.43-.6.78-4.39,3.84-3.63,4.57,10.86.99,20.33,7.71,21.31,19.14,1.05,12.22,1.03,35.24,0,47.49-.28,3.37-.55,3.67-3.95,3.95-22,1.82-46.49-1.43-68.76-.01-4.32,3.15-8.24,6.82-12.66,9.85-1.96,1.35-10.68,7.06-12.35,7.16-4.72.26-19.38-13.88-23.69-17.01l-76.67.02c-1.87,0-4.05-.49-3.96-2.73,1.03-14.77-1.25-31.1.01-45.67,1.64-18.91,20.56-22.84,34.72-29.28-.3-1.87.44-4.85-.12-6.49-.27-.77-2.4-1.81-3.26-2.82-1.29-1.51-3.14-3.95-4.05-5.68-1.21-2.3-2.7-9.64-3.04-10.03-.21-.23-1.76-.35-2.52-.81-11.34-6.93-10.43-27.52-5.27-38.23h-12.47c-6.11,0-16.48-6.62-20.37-11.27C4.36,52.88,4.7,25.54,0,9.35c.22-2.27,1.24-2.57,3.31-2.79,6.52-.7,20.81-.63,27.42-.03,2.21.2,3.79.46,4.38,2.92l5.63,23.87h26.77l-5.92-28.4c-.18-.71.99-2.62,1.35-2.62h20.69ZM97.32,33.32l-16.12-26.15h-13.69l5.48,26.15h24.34ZM6.67,16.9c1.96,11.44,5.41,36.96,12.18,45.3s20.04,11.55,30.74,10.08c2.84-.39,3.4-4.07,6.85-5.32,3.76-1.36,8.22,1.25,8.58.99.17-.12,1.36-2.35,2.49-3.31s5.13-2.98,5.38-3.74c.93-2.8-1.87-14.65,2.73-14.04.58.08,2.23,1.03,2.23,1.37v11.86c4.57-.37,8.95,1.06,13.38,1.82v-12.47c0-.59,1.78-2.76,2.74-2.76,5.12,0,1.44,15.96,2.84,18.17.32.51,8.93,4.77,9.65,7.08l60.49.29c7.88-5.39,14.76-7.24,24.36-6.66,1.68.1,4.04,1.37,5.34,1.09,2.45-.52,8.12-6.06,8.35-9h-20.99c-.44,0-3.06-1.39-3.66-1.82-4.93-3.57-3.77-7.57-3.95-12.78-.07-2.12.83-5.02-2.1-4.9l-136.83-.05-7.08-26.07H5.45c.56,1.55.94,3.24,1.22,4.87ZM181.27,43.66c-.06,3.38-.78,6.68,2.88,8.38,2.94,1.37,12.79.85,16.59.75,1.41-.04,2.84.03,4.26,0-2.23-9.4-15.07-13.28-23.73-13.99-.02,1.62.03,3.25,0,4.87ZM107.06,108.13c14.32-19.72-9.14-45.87-30.69-42.54-1.67.26-4.36,2.07-5.6,3.22-1.09,1.01-3.64,5.16-4.47,5.57-4.03,2.03-4.96-5.3-9.18-1.88-7.69,6.22-9.68,28.02-4.1,35.83.92,1.28,1.75,2.52,3.54,2.23.12-3.08,1.72-22.53,3-23.45,3.94-2.84,5.9,4.78,7.46,7.22,6.32,9.87,16.03,12.3,26.36,6.52,2.52-1.41,6.51-6.06,8.97-5.4,2.88.77,3.7,9.95,4.71,12.68ZM156.33,101.44h10.04c5.61,0,16.92-6.03,21.28-9.75,1.95-1.67,5.98-7.32,7.94-7.27,2.33.06,3.48,5.41,4.67,7.47,3.41,5.91,10.65,9.9,17.52,9.55-3.58-17.88-17.24-34.67-37.38-29.76-12.62,3.07-22.45,17.34-24.07,29.77ZM161.8,77.12h-51.1c6.09,8.9,7.85,20.93,3.15,30.83-1.21,2.56-4.55,5.66-5.25,7.53-2.41,6.43-1.32,9.65-6.72,15.79-3.34,3.79-5.71,3.27-4.6,9.93,18.65,7.51,32.83,7.42,36.46,30.58.51,3.26-.77,5.23,2.81,7.52,4.94-4.12,2.75-8.48,3.62-14.01,1.64-10.44,11.89-16,21.63-17,.48-.54-4.92-6.18-5.72-7.35-6.74-9.84-7.17-25.11-5.76-36.66,1.25-10.22,5.46-18.97,11.48-27.14ZM195.24,92.95c-1.07-.76-7.51,5.26-9.15,6.31-5.38,3.46-11.16,5.34-17.32,7.01-2.05,15.16,4.87,26.65,21.32,24.97,7.22-.74,14.04-7,14.93-14.27.21-1.74.27-12.15-.12-13.3-.13-.39-5.12-3.95-6.29-5.26-.89-.99-1.83-2.35-2.65-3.45-.43-.58-.63-1.94-.72-2ZM63.84,97.8c-.07-.06-1.28-.23-1.21.3,0,8.95-3.67,16.43.5,25.04,6.57,13.56,25.85,15.88,35.38,4.13,6.59-8.13,5.24-15.63,1.52-24.62-13.2,8.85-24.24,8.53-35.31-3.03-.61-.64-.81-1.77-.89-1.83ZM218.38,106.92l-7.9-1.22c.08,7.63-.06,15.39-4.62,21.84-1.07,1.52-5.4,5.27-5.6,5.96-.4,1.37-.38,10.87.46,11.46.26.18,4.1.93,4.62.92,2.88-.09,8.6-8.05,9.93-10.75,4.41-8.94,3.99-18.52,3.11-28.2ZM163.63,106.92h-8.52v17.94c0,1.64,2.26,7.88,3.12,9.66,1.13,2.34,7.31,10.57,9.49,11.22,1.1.33,6.41-.6,6.79-1.18.29-.44.25-9.67-.02-10.46-.15-.43-5.12-4.62-6.37-6.41-1.33-1.9-4.48-8.06-4.48-10.11v-10.64ZM194.66,136.11c-5.28,1.37-9.93,1.58-15.21,0v11.25c0,2.04-7.25,3.02-9.1,3.37l-.03,14.58c7.1-.53,12.35,3.43,16.73,8.5,3.64-5.47,9.49-8.63,16.13-8.5-.5-2.39.69-13.32-.08-14.52-.68-1.06-8.44-.52-8.44-4.64v-10.04ZM71.76,137.94v8.82c0,.95,3.55,5.13,4.56,5.79,3.61,2.35,7.31,2.16,10.86-.11,5.2-3.31,4.87-8.35,4.66-13.89-6.8,1.67-13.43,1.95-20.07-.61ZM36.48,171.09v42.27h14.6v-40.45c0-1.85,4.87-1.86,4.87,0v40.45h52.32c-1.04-2.62-2.77-4.65-3.93-7.32-3.36-7.76-4.22-16.06-.04-23.72,4.65-8.52,14.8-12.65,24.05-9.71.23-17.98-17.55-21.37-31.26-25.59-4.71,15.91-25.97,16.35-30.21.07-12.55,4.43-28.51,8.22-30.39,24ZM165.45,152.54c-11.67,1.28-22.22,6.55-20.68,20.07,3.25-1.81,11.76.88,13.73-.57.92-.67,1.73-2.78,3.34-3.95,1.03-.74,3.61-1.37,3.61-1.56v-13.99ZM228.73,213.36v-46.53c0-.34-1.78-4.45-2.17-5.13-3.81-6.7-11.48-8.03-18.52-9.16v13.08c0,.58,3.45,1.88,4.22,2.47,12.83,9.75,4.51,32.33,1.86,45.28h14.6ZM203.78,170.17c-2.82-.24-6.21,1.12-8.46,2.79-2.48,1.84-6.48,8.96-7.79,9.28-3.18.79-4.99-6.31-7.18-8.42-5.13-4.95-15-5.05-17.98,2.09,9.23,6.4,11.55,17.68,7.97,28.04-1.18,3.41-3.48,6.14-4.89,9.4,12.75-.28,25.58.38,38.33,0,1.38-.04,4.4.44,5.19-.59,2.05-11.47,9.29-27.36,2.23-38.15-1.71-2.61-4.26-4.18-7.42-4.44ZM134.58,186.44c-.58-.56-.94-2.46-1.71-3.45-10.22-13.07-27.19-3.59-26.45,11.85s17.26,28.94,29.43,35.43c13.14-7.11,32.24-21,30.85-37.91-.97-11.76-16.85-21.37-25.22-11.17-1.7,2.07-3.41,8.65-6.9,5.26Z" style="fill:#383838;"/><path d="M138.95,126.32c0,5.69-4.61,10.3-10.31,10.3s-10.31-4.61-10.31-10.3,4.61-10.3,10.31-10.3,10.31,4.61,10.31,10.3ZM133.85,126.28c0-2.87-2.33-5.2-5.2-5.2s-5.2,2.33-5.2,5.2,2.33,5.2,5.2,5.2,5.2-2.33,5.2-5.2Z" style="fill:#383838;"/><circle cx="128.65" cy="126.28" r="5.2" style="fill:#f6f6f6;"/><path d="M176.41,43.05c.18,5.21-.98,9.21,3.95,12.78.59.43,3.22,1.82,3.66,1.82h20.99c-.23,2.95-5.91,8.49-8.35,9-1.3.28-3.66-.99-5.34-1.09-9.59-.58-16.48,1.26-24.36,6.66l-60.49-.29c-.71-2.31-9.33-6.57-9.65-7.08-1.39-2.21,2.28-18.17-2.84-18.17-.96,0-2.74,2.17-2.74,2.76v12.47c-4.43-.77-8.82-2.2-13.38-1.82v-11.86c0-.34-1.65-1.29-2.23-1.37-4.6-.6-1.8,11.24-2.73,14.04-.25.76-4.22,2.75-5.38,3.74s-2.32,3.19-2.49,3.31c-.36.25-4.82-2.36-8.58-.99-3.44,1.25-4.01,4.93-6.85,5.32-10.7,1.47-23.73-1.45-30.74-10.08S8.62,28.34,6.67,16.9l20.72.27,6.16,24.86,1.4,1.03h141.46ZM37.23,47.46c-.99,1.01-1.1,12.83-.74,14.73.44,2.34,3.52,3.14,4.75,1.13,1.77-2.88,1.45-21.4-4.01-15.86ZM59.6,47.31c-6.5-3.69-5.28,9.92-4.9,13.72.49,5.01,4.9,3.31,4.9,2.4v-16.12ZM114.35,63.43c.61-1.98,0-12.17,0-15.21,0-1.19-3.52-2.36-4.46-.17-.6,1.4-.73,13.11-.28,14.64.61,2.08,4.29,2.21,4.74.73ZM127.74,48.22c-.63,2.22,0,11.46,0,14.6,0,1.54,4.87,2.19,4.87.61v-15.21c0-1.45-4.21-2.33-4.87,0ZM150.85,62.82c.61-3.64,0-10.52,0-14.6,0-1.6-4.87-1.6-4.87,0v14.6c0,2.04,4.44,2.51,4.87,0ZM164.93,64.25c1.05.65,3.84.36,4.17-1.43s.33-12.24,0-13.99c-.35-1.84-2.89-2.64-4.11-1.37s-1.06,16.17-.06,16.79Z" style="fill:#e6e6e6;"/><path d="M6.67,16.9c-.28-1.62-.65-3.31-1.22-4.87h24.94l7.08,26.07,136.83.05c2.93-.13,2.03,2.78,2.1,4.9H34.95s-1.4-1.03-1.4-1.03l-6.16-24.86-20.72-.27Z" style="fill:#c8c8c8;"/><polygon points="97.32 33.32 72.98 33.32 67.51 7.17 81.19 7.17 97.32 33.32" style="fill:#fccd56;"/><path d="M181.27,43.66c.03-1.62-.03-3.25,0-4.87,8.66.71,21.5,4.59,23.73,13.99-1.41.04-2.84-.04-4.26,0,.08-1.39-.92-1.57-1.75-2.2-5.03-3.8-11.56-5.86-17.72-6.92Z" style="fill:#e6e6e6;"/><path d="M200.74,52.79c-3.8.11-13.65.62-16.59-.75-3.65-1.7-2.94-4.99-2.88-8.38,6.15,1.06,12.69,3.12,17.72,6.92.83.63,1.83.82,1.75,2.2Z" style="fill:#f6f6f6;"/><path d="M37.23,47.46c5.46-5.54,5.78,12.99,4.01,15.86-1.23,2.01-4.31,1.21-4.75-1.13-.36-1.91-.25-13.73.74-14.73Z" style="fill:#383838;"/><path d="M59.6,47.31v16.12c0,.91-4.41,2.62-4.9-2.4-.37-3.8-1.59-17.41,4.9-13.72Z" style="fill:#383838;"/><path d="M127.74,48.22c.66-2.33,4.87-1.45,4.87,0v15.21c0,1.58-4.87.93-4.87-.61,0-3.14-.63-12.38,0-14.6Z" style="fill:#383838;"/><path d="M114.35,63.43c-.46,1.48-4.13,1.35-4.74-.73-.45-1.53-.32-13.24.28-14.64.95-2.2,4.46-1.03,4.46.17,0,3.04.61,13.22,0,15.21Z" style="fill:#383838;"/><path d="M150.85,62.82c-.42,2.51-4.87,2.04-4.87,0v-14.6c0-1.6,4.87-1.6,4.87,0,0,4.08.61,10.96,0,14.6Z" style="fill:#383838;"/><path d="M164.93,64.25c-1-.62-1.19-15.5.06-16.79s3.76-.47,4.11,1.37.33,12.23,0,13.99-3.12,2.08-4.17,1.43Z" style="fill:#383838;"/></g></svg>