<?xml version="1.0" encoding="UTF-8"?><svg id="a" xmlns="http://www.w3.org/2000/svg" viewBox="0 0 230.86 230.01"><g id="b"><path d="M78.9,76.36c-.41-7.32-.35-14.15,6.43-18.46,1.07-.68,3.43-.85,3.59-1.03,1.35-1.57-2.83-6.82,4.67-7.56,14.81-1.45,32.52.84,47.6.47,2.9,1.41,1.06,6.27,1.77,7.09.14.16,2.76.47,4.09,1.38,6.4,4.4,6.26,11.06,5.92,18.11h26.51c.26,0,3.92,2.39,4.35,2.81,3.57,3.57,1.88,7.27,3.6,10.31,5.54,9.8,22.35,21.25,28.5,32.18,8.67,15.4,2.77,28.58-3.88,43.03-4.82,10.47-15.45,9.96-25.38,9.58.16,4.43-2.83,8.04-6.73,9.7l-126.65.35c-3.67-.94-6.2-3.28-7.65-6.71-.42-1-.26-3.17-.43-3.34-.62-.63-12.49.63-17.37-1.58-7.72-3.5-7.13-8.21-9.96-14.48-5.87-13.03-9.81-20.35-2.83-34.92,5.64-11.76,23.53-23.42,29.4-33.8,1.72-3.04.03-6.74,3.6-10.31.42-.42,4.09-2.81,4.35-2.81h26.51ZM95.72,56.1v6.78s40.43,0,40.43,0v-6.78s-40.43,0-40.43,0ZM85.64,76.36h60.59c-.15-2.83.92-10.38-2.12-11.81-1.84-.87-1.02,2.59-2.01,3.87-.53.7-1.36,1.04-2.21,1.16-14.83-1.07-31.75,1.5-46.31.07-6.37-.63-3.96-5.13-5.01-5.12-4.01.06-2.83,9.43-2.94,11.82ZM51.97,89.86c-.35,6.32-.85,19.75.2,25.53.53,2.96,4.9,8.22,7.8,8.22h15.57c-.2-11.23.26-22.53,0-33.75-.05-2.24.04-4.51,0-6.75h-21.46c-2.29,0-2.02,5.29-2.1,6.75ZM82.25,83.1v47.28h6.76v-47.28h-6.76ZM95.72,123.61h40.42v-40.51h-40.42v40.51ZM142.85,83.1v47.28h6.76v-47.28h-6.76ZM156.33,89.86c-.26,11.23.2,22.52,0,33.75,5.48-.43,11.67.97,16.84-.85,3.58-1.26,6.1-4.2,6.66-8.09.45-3.17.45-28.25-.34-29.88-.68-1.39-1.98-1.55-3.33-1.72-6.02-.78-13.61.65-19.82.03-.04,2.24.06,4.51,0,6.75ZM19.98,145.55c1.31-7.22,4.95-14.75,9.41-20.52,3.01-3.89,14.18-13.04,15.41-15.77s.05-7.14.43-10.11l-20.62,21.93c-4.83,5.77-6.95,13.07-6.2,20.58.09.86.33,3.96,1.57,3.89ZM212.71,145.55c2.24-8.64.22-17.68-5.45-24.47l-20.62-21.93c.38,2.97-.78,7.44.43,10.11s12.15,11.58,15.06,15.27c2.33,2.96,4.16,6.66,6.14,9.88l4.44,11.14ZM45.24,153.99v-35.44c-11.02,8.65-19.21,21.11-20.2,35.44h20.2ZM206.82,153.99c-1.06-14.33-9.13-26.78-20.2-35.44v35.44h20.2ZM112.57,130.36v33.33c0,1.84-5.78,6.76-8.04,7.12-7.01,1.11-28.66.78-36.18.09-4.13-.38-8.92-3.85-9.59-8.1-1.5-9.45,1.11-22.08-.16-31.9l-6.62-3.91v48.52c0,.15,1.3,1.49,1.7,1.67h124.53c.4-.19,1.7-1.53,1.7-1.67v-48.52l-6.62,3.91c-1.27,9.82,1.34,22.45-.16,31.9-.67,4.25-5.46,7.72-9.59,8.1-7.52.69-29.17,1.02-36.18-.09-2.27-.36-8.04-5.28-8.04-7.12v-33.33h-6.73ZM75.54,130.36h-10.1v31.64c0,1.07,2.63,2,3.75,2.15,3.39.46,33.37.27,34.95-.48.4-.19,1.7-1.53,1.7-1.67v-31.64h-10.1v18.14c0,.7-8.61,9.09-10.48,8.9-1.05-.1-9.72-8.24-9.72-8.9v-18.14ZM136.13,130.36h-10.1v31.64c0,1.07,2.63,2,3.75,2.15,3.39.46,33.37.27,34.95-.48.4-.19,1.7-1.53,1.7-1.67v-31.64h-10.1v18.14c0,.7-8.61,9.09-10.48,8.9-1.05-.1-9.72-8.24-9.72-8.9v-18.14ZM89.01,137.11h-6.74c-1.92,15.4,8.66,15.43,6.74,0ZM149.6,137.11h-6.74c-1.92,15.4,8.66,15.43,6.74,0ZM45.24,160.74h-19.36c-.23,2.14,5.32,6.75,7.15,6.75h12.2v-6.75ZM205.98,160.74h-19.36v6.75h12.2c1.96,0,8.28-5.69,7.15-6.75Z" style="fill:#010101;"/><path d="M112.57,130.36h6.73v33.33c0,1.84,5.78,6.76,8.04,7.12,7.01,1.11,28.66.78,36.18.09,4.13-.38,8.92-3.85,9.59-8.1,1.5-9.45-1.11-22.08.16-31.9l6.62-3.91v48.52c0,.15-1.3,1.49-1.7,1.67H53.67c-.4-.19-1.7-1.53-1.7-1.67v-48.52l6.62,3.91c1.27,9.82-1.34,22.45.16,31.9.67,4.25,5.46,7.72,9.59,8.1,7.52.69,29.17,1.02,36.18-.09,2.27-.36,8.04-5.28,8.04-7.12v-33.33Z" style="fill:#906556;"/><rect x="95.72" y="89.86" width="40.42" height="33.75" style="fill:#be9175;"/><path d="M75.54,130.36v18.14c0,.67,8.67,8.8,9.72,8.9,1.87.18,10.48-8.2,10.48-8.9v-18.14h10.1v31.64c0,.15-1.3,1.49-1.7,1.67-1.58.74-31.56.93-34.95.48-1.11-.15-3.75-1.08-3.75-2.15v-31.64h10.1Z" style="fill:#785247;"/><path d="M136.13,130.36v18.14c0,.67,8.67,8.8,9.72,8.9,1.87.18,10.48-8.2,10.48-8.9v-18.14h10.1v31.64c0,.15-1.3,1.49-1.7,1.67-1.58.74-31.56.93-34.95.48-1.11-.15-3.75-1.08-3.75-2.15v-31.64h10.1Z" style="fill:#785247;"/><path d="M75.54,89.86c.26,11.22-.2,22.52,0,33.75h-15.57c-2.89,0-7.26-5.25-7.8-8.22-1.05-5.79-.55-19.21-.2-25.53h23.56Z" style="fill:#be9175;"/><path d="M173.16,122.77c-5.17,1.82-11.36.41-16.84.85.2-11.23-.26-22.53,0-33.75,4.86.5,13.83-1.96,16.2,3.59,2.57,6.03-.6,22.14.63,29.32Z" style="fill:#be9175;"/><path d="M173.16,122.77c-1.24-7.18,1.93-23.29-.63-29.32-2.36-5.55-11.33-3.09-16.2-3.59.05-2.24-.04-4.51,0-6.75,6.21.62,13.8-.81,19.82-.03,1.35.17,2.65.33,3.33,1.72.79,1.63.79,26.71.34,29.88-.55,3.9-3.07,6.83-6.66,8.09Z" style="fill:#a27662;"/><path d="M19.98,145.55c-1.24.07-1.48-3.03-1.57-3.89-.75-7.51,1.37-14.81,6.2-20.58l20.62-21.93c-.38,2.97.78,7.44-.43,10.11s-12.4,11.88-15.41,15.77c-4.46,5.77-8.1,13.3-9.41,20.52Z" style="fill:#906556;"/><path d="M212.71,145.55l-4.44-11.14c-1.97-3.22-3.8-6.92-6.14-9.88-2.91-3.69-13.83-12.56-15.06-15.27s-.05-7.14-.43-10.11l20.62,21.93c5.67,6.79,7.69,15.84,5.45,24.47Z" style="fill:#906556;"/><rect x="95.72" y="83.1" width="40.42" height="6.76" style="fill:#a27662;"/><rect x="82.25" y="83.1" width="3.38" height="47.28" style="fill:#383838;"/><rect x="85.64" y="83.1" width="3.38" height="47.28" style="fill:#4c4c4c;"/><rect x="142.85" y="83.1" width="3.38" height="47.28" style="fill:#383838;"/><rect x="146.23" y="83.1" width="3.38" height="47.28" style="fill:#4c4c4c;"/><path d="M51.97,89.86c.08-1.46-.18-6.75,2.1-6.75h21.46c.04,2.24-.05,4.51,0,6.75h-23.56Z" style="fill:#a27662;"/><path d="M100.78,56.1c-.01,2.31,2.04,3.05,3.84,3.34,9.34,1.46,21.81-.97,31.52.05v3.39s-40.43,0-40.43,0v-6.78s5.06,0,5.06,0Z" style="fill:#785247;"/><path d="M100.78,56.1h35.36s0,3.39,0,3.39c-9.71-1.02-22.18,1.4-31.52-.05-1.81-.28-3.86-1.03-3.84-3.34Z" style="fill:#906556;"/><path d="M45.24,160.74v6.75h-12.2c-1.83,0-7.39-4.61-7.15-6.75h19.36Z" style="fill:#785247;"/><path d="M205.98,160.74c1.13,1.06-5.2,6.75-7.15,6.75h-12.2v-6.75h19.36Z" style="fill:#785247;"/><path d="M89.01,137.11c1.91,15.43-8.66,15.4-6.74,0h6.74Z" style="fill:#f4c750;"/><path d="M149.6,137.11c1.91,15.43-8.66,15.4-6.74,0h6.74Z" style="fill:#f4c750;"/></g></svg>