<?xml version="1.0" encoding="UTF-8"?><svg id="a" xmlns="http://www.w3.org/2000/svg" viewBox="0 0 230.86 230.01"><g id="b"><path d="M124.5,180.56c-1.52-.95-.77-10.32-.96-12.54-4.9,6.47-6.91,6.7-12.61.84-.28,3.09,1.33,11.13-2.97,11.85-1.06.18-2.75.11-3.4-.83s-.85-21.74-.25-22.7c.17-.28,2.39-.96,2.91-.95,3.97.06,5.71,6.5,9.28,8.36,2.7.47,8.96-12.38,13.01-7.18,1.05,1.35,1.24,18.8.59,21-.6,2.04-4.12,3.11-5.62,2.17Z" style="fill:#080808;"/><path d="M168.16,179.4c-.5,1.62-3.64,1.57-5.06.85-1.84-.93-5.86-8.78-7.99-10.55-.9,3.32,1.33,14.61-5.48,10.55-2.44-1.46-2.38-21.21-.62-23,4.71-4.79,9.55,8.4,13.26,9.91.33-2.84-1.3-10.03,2.29-10.85.62-.14,3.61.54,3.61.73,0,4.42.89,19.47,0,22.36Z" style="fill:#030404;"/><path d="M88.77,158.15c2.54,2.78,2.66,14.79,1.49,18.25-2,5.96-13.99,5.88-16.73.82-2.35-4.33-2.28-17.36,2.56-20.09,2.95-1.67,10.28-1.62,12.68,1.01ZM83.99,162.1c-6.28-1.61-5.65,5.18-5.09,9.74.44,3.6,1.79,2.97,5.09,2.91v-12.66Z" style="fill:#080808;"/><path d="M63.78,173.91c4.44-1.57,7.13,5.5,3.67,6.64-1.22.4-11.79.42-13.35.12-9.71-1.85,9.53-12.57,7.17-17.29-3.94-2.38-3.45,7.32-8.44,4.24-5.56-3.44,4.34-16.94,12.67-9.34,4.9,4.46,2.28,11.48-1.72,15.64Z" style="fill:#080808;"/><path d="M136.17,158.31c.6-2.16,4.67-3.32,6.11-.22,1.01,2.18,1.06,17.61.24,20.09-1.31,3.99-6.35,2.54-6.35,1.22,0-4.53-.9-17.88,0-21.09Z" style="fill:#040303;"/><ellipse cx="177" cy="177.42" rx="3.58" ry="3.59" style="fill:#080808;"/><path d="M160.58,55.79c-.11.08-.04,1.63-.8,2.12l-144.82.41v80.16c58.28-1.24,116.83,1.65,175.08,0,1.96-.06,3.94.04,5.9,0V58.81c-.13-.91-4.65-.45-5.9-.49-3.9-.11-18.73.81-20.61-.86-.42-.37-.29-1.58-.44-1.68-.13-1.88-.04-2.97,2.1-3.38,3.22-.61,23.59-.48,26.73.23,6.37,1.43,4.7,11.74,4.84,16.65h15.57c2.28,0,5.21,4.75,5.49,7.15.45,3.81.63,18.55-.01,21.96-.38,2-1.81,2.27-3.37,2.95-.1-.21-1.77-.46-2.29-1.04-2.54-2.84-.32-19.6-1.07-24.28-1.68-.04-3.38.06-5.06,0-3.07-.11-6.19.08-9.26,0v44.72c3.07-.08,6.19.11,9.26,0,1.68-.06,3.38.05,5.06,0,.53-3.88-1.94-11.27,3.36-10.97,1.31.07,2.72-.23,3.25,1.38.45,1.36.34,8.25.07,9.96-.32,2.06-3.62,6.38-5.42,6.38h-15.57c-.09,6.51,1.78,14.97-6.27,16.92H15.33c-4.45-.16-6.76-2.87-7.16-7.16-2.33-24.82,1.87-53.32.04-78.54.06-2.47,1.43-4.55,3.6-5.67,48.74-1.48,97.81-.21,146.67-.64l2.1,3.38Z" style="fill:#030404;"/><path d="M169,55.79c.14.1.02,1.3.44,1.68,1.87,1.67,16.7.75,20.61.86.9,2.32-.84,6.36-.84,7.59-1.4-.96-2.99-.83-4.59-.88-53.24-1.6-106.75,1.3-160.01,0-3.36.16-3.52,1.83-3.8,4.63-1.79,18.36,1.47,39.62,0,58.31-.02,1.6.71,3.11,2.31,3.59l166.08-.67c0,1.23,1.75,5.28.84,7.59-58.25,1.65-116.8-1.24-175.08,0V58.32l144.82-.41c.76-.49.69-2.04.8-2.12.35-.24,8.07-.24,8.42,0Z" style="fill:#648892;"/><path d="M211.93,76.04c1.68.06,3.38-.05,5.06,0,.75,4.68-1.47,21.44,1.07,24.28.52.58,2.19.83,2.29,1.04.59,1.31-.42,6.49,0,8.44-5.3-.29-2.83,7.09-3.36,10.97-1.68.05-3.38-.06-5.06,0v-44.72Z" style="fill:#4f6f78;"/><path d="M190.05,58.32c1.25.03,5.77-.43,5.91.49v79.68c-1.97.04-3.95-.06-5.91,0,.91-2.31-.84-6.37-.84-7.59.04-21.46.01-43.54,0-64.97,0-1.24,1.75-5.28.84-7.59Z" style="fill:#4f6f78;"/><path d="M211.93,76.04v44.72c-3.07.11-6.19-.08-9.26,0v-44.72c3.07.08,6.19-.11,9.26,0Z" style="fill:#648892;"/><path d="M189.2,65.92c.01,21.43.04,43.51,0,64.97l-166.08.67c-1.6-.47-2.33-1.99-2.31-3.59,1.46-18.68-1.8-39.95,0-58.31.27-2.81.44-4.47,3.8-4.63,53.27,1.31,106.77-1.6,160.01,0,1.6.05,3.19-.08,4.59.88ZM27.58,70.98v54.89s26.12,0,26.12,0v-54.89s-26.12,0-26.12,0ZM80.62,70.98c-6.99-.25-14.05.18-21.04,0v54.84c6.99-.18,14.06.25,21.04,0,1.68-.06,3.38.05,5.06,0,1-.97-1.04-23.46.37-27.89.46-1.45,1.31-2.52,2.99-2.49.14.14,1.64-.31,2.3.16,2.32,1.66.46,25.79,1.06,30.22,28.38-.95,57.58,1.25,85.86,0,2.78-.12,6.08,1,5.93-2.91l-.04-49.82c-.33-3.02-3.66-2.01-5.89-2.11-28.3-1.24-57.47.93-85.86,0-.5.5.56,11.38-.16,13.76-.64,2.15-3.09,2.1-3.21,2.27-6.05-.4-2.18-14.89-3.36-16.04-1.68-.05-3.38.06-5.06,0Z" style="fill:#040303;"/><path d="M178.26,70.98v54.84c-28.29,1.26-57.48-.94-85.86,0-.61-4.43,1.25-28.55-1.06-30.22-.66-.48-2.16-.02-2.3-.16-.3-.29-.23-8.08,0-8.44.11-.17,2.56-.12,3.21-2.27.71-2.39-.34-13.27.16-13.76,28.39.93,57.57-1.23,85.86,0Z" style="fill:#eef4f5;"/><path d="M80.62,70.98v54.84c-6.99.25-14.05-.18-21.04,0v-54.84c6.99.18,14.06-.25,21.04,0Z" style="fill:#fa4958;"/><polygon points="47.79 70.97 47.79 125.86 27.59 125.86 27.58 70.98 47.79 70.97" style="fill:#fa4958;"/><polygon points="47.79 70.97 53.69 70.97 53.7 125.86 47.79 125.86 47.79 70.97" style="fill:#e83040;"/><path d="M178.26,125.82v-54.84c2.24.1,5.56-.91,5.89,2.11l.04,49.82c.14,3.91-3.16,2.79-5.93,2.91Z" style="fill:#b8cbcc;"/><path d="M80.62,70.98c1.68.06,3.38-.05,5.06,0,1.18,1.14-2.68,15.63,3.36,16.04-.23.35-.3,8.14,0,8.44-1.68-.03-2.53,1.03-2.99,2.49-1.41,4.43.63,26.92-.37,27.89-1.68.05-3.38-.06-5.06,0v-54.84Z" style="fill:#e83040;"/></g></svg>