<?xml version="1.0" encoding="UTF-8"?><svg id="a" xmlns="http://www.w3.org/2000/svg" viewBox="0 0 230.86 230.01"><g id="b"><path d="M223.16,226.87h-22.46c-.59-15.07-1.54-31.45-13.47-42.22l5.84-9.43c1.47.38,3.78-.17,4.29-1.77.55-1.7-.16-11.36-.81-13.17-.52-1.46-2.02-2.2-3.49-2.13l-.9-8.98c1.69-.13,2.87-1.76,3.08-3.35-3.93-32.05-6.12-64.62-14.31-95.9.96-.24,1,.54,1.44,1.02,9.97,10.96,17.6,37.04,21.24,51.52,10.27,40.9,13.59,82.79,19.53,124.41Z" style="fill:#e6eaee;"/><path d="M37.67,175.22c.87.2,5.57,8.98,6.74,10.33-2.29-.29-5.05,3.54-6.2,5.25-7.23,10.65-7.51,23.67-8.17,36.07H7.58c.76-4.3.82-9.63,1.4-14.09,5.4-41.65,10.3-88.71,23.29-128.51,2.86-8.78,10.15-27.93,16.62-34.13.54-.52.5-.06.46.46-.43,5.67-3.27,14.62-4.36,20.8-3.59,20.28-6.02,41.34-8.22,61.84-1.21,11.25-3.17,24.39-3.59,35.48-.08,2.04-.56,5.53,1.77,6.31,1,.33,1.98.03,2.72.2Z" style="fill:#e6eaee;"/><path d="M136.62,18.34c1.93,1.78,8.4.83,11.26,1.09,7.41.68,14.71,4.49,18.25,11.17-5.66-1.21-11.48-1.75-17.29-1.34-1.87.13-5.73,1.35-7.14,1.21-.94-.1-4.41-2.48-5.82-3.09-13.73-5.96-27.3-5.81-41.03,0-1.28.54-5.14,3.02-5.81,3.1-1.27.15-5.35-1.09-7.14-1.22-5.81-.42-11.63.13-17.29,1.34,3.51-6.87,11.13-10.6,18.65-11.22,2.8-.23,8.91.76,10.86-1.04.52-.48.86-1.66,1.5-2.32,11.95-12.54,27.55-12.53,39.5,0,.63.66.97,1.84,1.5,2.32Z" style="fill:#e6eaee;"/><path d="M230.35,225.52v4.49h-4.94c-1.2-.94-2.01-1.52-2.25-3.14-5.94-41.62-9.26-83.51-19.53-124.41-3.64-14.48-11.26-40.55-21.24-51.52-.44-.48-.48-1.26-1.44-1.02,8.19,31.28,10.38,63.86,14.31,95.9-.21,1.59-1.39,3.22-3.08,3.35-2.43.18-3.55-1.82-3.93-3.93-1.78-9.92-2.06-21.52-3.32-31.72-2.6-21.07-5.19-45.67-11.4-65.85-1.84-5.97-1.48-7.49-7.74-9.78-1.49-.55-5.73-1.9-7.08-1.9h-9.66c11.91,11.44,17.08,27.13,15.72,43.57,5.03-.64,10.03,1.89,11.03,7.16.7,3.68.56,14.18-.92,17.54-1.7,3.86-5.52,5.28-9.21,6.52.04,1.35,5.89,5.25,7.2,6.72,4.65,5.23,4.93,12.64.63,18.16-2.02,2.59-6.35,4.66-7.75,7.07s-.27,7.31-4.33,7.31c-4.78,0-3.46-6.83-2.1-9.7,2.9-6.12,12.11-7.39,10.22-15.45-.21-.91-.99-2.18-1.6-2.88-.45-.52-4.43-3.78-4.94-4.04-.46-.24-.84-.28-1.34-.22-2.72,10.8-9.3,19.52-17.28,26.96-2.94,2.74-4.5,1.61-4.27,6.5.76,16.44,13.08,17.13,25.38,21.78,7.31,2.76,15.93,6.41,21.77,11.69,11.94,10.77,12.89,27.15,13.47,42.22-.38,1.46-1.01,2.3-2.25,3.14h-2.69c-1.19-.94-2.02-1.53-2.25-3.14-.39-2.89.2-6.6,0-9.65-1.23-18.06-7.12-27.84-23.64-35.2-10.83-4.82-26.65-6.6-32.95-17.58-2.42-4.22-2.64-8.02-3.85-12.59-11.38,5.03-24.25,4.77-35.66.01-.68,4.52-1.37,8.55-3.6,12.58-.34.61-.97,1.74-1.35,2.25-5.73,7.53-17.6,10.09-26.16,13.14-2.86,1.02-8.09,4.17-10.8,3.38-.63-.18-1.18-1.18-1.66-1.25-1.58-4.7,4.16-6.15,7.51-7.53,8.17-3.36,22.64-5.59,26.99-13.88,1.2-2.28,3.15-10.58,2.1-12.72-.2-.4-5.88-4.64-6.92-5.66-6.59-6.44-12.03-15.51-14.42-24.43-.5-.06-.89-.02-1.34.22-.51.27-4.49,3.53-4.94,4.04-.62.71-1.39,1.98-1.6,2.88-1.9,8.06,7.31,9.33,10.22,15.45,1.36,2.87,2.67,9.7-2.1,9.7-4.07,0-2.94-4.91-4.33-7.31-1.47-2.52-6.04-4.6-8.02-7.25-3.52-4.72-3.7-11.64-.38-16.54,1.79-2.64,7.65-5.86,8.46-7.72.41-.95-2.28-1.15-3-1.48-2.97-1.35-5.03-2.59-6.33-5.79s-1.53-14.89-.52-18.3c1.37-4.63,6.21-6.73,10.76-6.08-.06-7.42-.25-15.51,2.37-22.56,1.06-2.86,1.85-4.12,5.27-3.94.87,1.21,2.02,2.12,1.82,3.8-3.16,9.03-2.85,18.21-2.72,27.63.24.28,5.34-3.15,6.11-3.54,2.72-1.35,5.86-2.56,8.7-3.65,14.34-5.51,38.38-10.08,41.57-28.27.48-2.72-.49-8.2,3.64-8.42s3.34,4.46,3.85,6.72c1.8,7.98,9.58,12.88,15.4,17.83l6.05,7.2c-.34-28.22-26.38-48.35-53.89-41.09-1.44.38-2.69,1.06-4.04,1.57-5.37,2.02-9.61,4.39-13.93,8.3-2.65,2.41-4.17,6.69-8.53,4.72,0-.29-.78-1.29-.88-2.05-.49-3.7,3.15-5.18,4.92-7.83h-9.66c-1.33,0-5.61,1.36-7.08,1.9-1.04.39-4.73,2.1-5.29,2.79-1.36,1.69-3.95,12.38-4.62,15.14-5.72,23.56-8.36,49.64-11.08,73.8-1.52,13.54-1.82,29.01-4.09,42.17-.29,1.7-.8,2.44-2.2,3.41-.74-.17-1.72.14-2.72-.2-2.33-.78-1.85-4.27-1.77-6.31.42-11.1,2.38-24.23,3.59-35.48,2.2-20.5,4.63-41.56,8.22-61.84,1.09-6.18,3.93-15.13,4.36-20.8.04-.52.08-.98-.46-.46-6.47,6.2-13.76,25.35-16.62,34.13-12.99,39.8-17.89,86.87-23.29,128.51-.58,4.46-.64,9.79-1.4,14.09-.24,1.37-1.14,2.38-2.25,3.14h-2.69c-3.02-1.78-2.03-4.79-1.74-7.8,1.69-17.95,4.57-36.89,7.21-54.77,5.06-34.35,13.78-96.16,36.32-122.67,2.57-3.02,7.77-6.47,9.62-8.8.89-1.12,1.92-4.48,2.87-6.12,7.55-13.04,17.22-18.1,32.55-17.3,12.8-16.77,39.01-16.7,51.82,0,14.15-.87,25.02,4.14,32.11,16.4,1.09,1.89,2.29,5.58,3.33,7,1.47,2,7.24,6.02,9.61,8.81,15.46,18.18,23.4,51.53,28.17,74.68,7.16,34.74,11.14,70.16,15.44,105.36l.41.71ZM136.62,18.34c-.52-.48-.86-1.66-1.5-2.32-11.95-12.53-27.55-12.54-39.5,0-.63.66-.97,1.84-1.5,2.32-1.95,1.8-8.06.82-10.86,1.04-7.52.61-15.13,4.35-18.65,11.22,5.66-1.21,11.48-1.75,17.29-1.34,1.79.13,5.87,1.37,7.14,1.22.67-.08,4.53-2.56,5.81-3.1,13.72-5.81,27.3-5.96,41.03,0,1.41.61,4.88,2.99,5.82,3.09,1.41.15,5.27-1.07,7.14-1.21,5.81-.42,11.63.13,17.29,1.34-3.54-6.67-10.84-10.49-18.25-11.17-2.86-.26-9.32.69-11.26-1.09ZM155.79,113.24c3.25-12.45,3.48-25.09-3.23-36.52-3.33-5.67-7.05-7.6-11.6-11.76-2.47-2.26-4.88-4.78-6.96-7.42-.99-.25-1.61,2.15-2.09,2.84-6.43,9.19-16.31,14.53-26.87,17.82.25,1.66,1.97,1.34,2.23,3.41.85,6.66-6.88,2.36-9.69,2.03-3.97-.47-6.82.04-10.51,1.3-16.33,5.57-16.14,13-12.13,28.29,1.35,5.15,2.68,9.26,5.39,13.92,4.9,8.41,12.47,15.37,21.56,18.86,19.43,7.48,37.78-1.29,48.06-18.41,3.08-5.14,4.34-8.65,5.84-14.37ZM65.97,103.81v-15.94c0-1.58-3.31-2.33-4.26-.21-.52,1.18-.4,11.43.06,12.94.55,1.79,2.37,3.07,4.19,3.22ZM164.78,103.81c1.83-.15,3.65-1.42,4.19-3.22.46-1.51.59-11.76.06-12.94-.94-2.12-4.26-1.37-4.26.21v15.94Z" style="fill:#030202;"/><path d="M44.41,185.55c.12.01,2.15.82,2.25.9.61.51.98,2.74.72,3.61-.37,1.24-4.63,5.97-5.73,8.22-2.62,5.34-3.99,13.02-4.41,18.95-.21,2.97.3,6.3,0,9.2-.02.15.03.31,0,.45-.25,1.38-1.13,2.38-2.25,3.14h-2.69c-1.13-.91-2.09-1.56-2.25-3.14.66-12.4.94-25.42,8.17-36.07,1.16-1.71,3.92-5.53,6.2-5.25Z" style="fill:#030202;"/><path d="M193.07,158.15c1.47-.07,2.96.67,3.49,2.13.65,1.8,1.36,11.46.81,13.17-.52,1.6-2.82,2.15-4.29,1.77-.99-.26-1.95-2.01-2.14-3.02-.42-2.23-1.1-8.07-1.04-10.23s1.08-3.71,3.19-3.82Z" style="fill:#030202;"/><path d="M172.86,226.87c-.22,1.37-1.16,2.38-2.25,3.14h-2.69c-1.19-.94-2.02-1.53-2.25-3.14-.86-6.28,1.01-9.17-2.46-15.73-7.17-13.51-24.14-14.55-35.71-6.06,7.86,9.16.48,16.04-6.74,21.78-1.33,1.06-2.8,1.97-4.04,3.14h-2.69c-1.23-1.18-2.72-2.08-4.04-3.14-7.18-5.8-14.64-12.55-6.74-21.78-11.57-8.49-28.54-7.46-35.71,6.06-3.54,6.67-1.47,9.54-2.46,15.73-.22,1.37-1.16,2.38-2.25,3.14h-2.69c-1.22-.95-1.98-1.51-2.25-3.14-.02-.14.01-.3,0-.45-.71-7.63,1.53-16.43,6.29-22.46,3.25-4.11,7.84-7.63,12.79-9.44,14.45-5.28,26.33,2.13,38.22,9.45,6.18-3.11,11.97-7.42,18.7-9.57,19.55-6.25,37.68,6.6,38.97,26.86.09,1.47.22,4.26,0,5.61ZM108.96,209.43c-2.25.66-2.39,3.36-1.77,5.19.51,1.54,6.29,6.87,7.61,7.24,1.24.35,4.92-2.75,5.97-3.75,1.15-1.1,2.7-2.54,3.03-4.15.56-2.69-1.1-5.34-3.96-4.42-1.94.63-1.65,2.67-4.7,2.54-2.74-.11-3.34-3.49-6.18-2.66Z" style="fill:#030202;"/><path d="M155.79,113.24c-3.16-4.02-7.04-6.02-12.12-4.26-9,3.13-7.99,16.48,1.31,18.43,1.91.4,3.29-.17,4.97.2-10.27,17.12-28.63,25.89-48.06,18.41-1.98-3.05-4.33-5.75-6.07-8.97-1.18-2.19-4.82-10.04-4.71-12.14.08-1.51,1.83-3.46,2.14-5.27.67-3.94-1.55-8.79-5.28-10.45-.2-1.8-1.11-4.18,0-5.84,4.69,3.61,12.97,3.09,17.29-.9,3.2-2.96.94-7.25-3.03-6.17-2.28.62-2.22,2.73-6.4,2.62-3.68-.1-5.2-3.53-8.3-2.73-1.03-3.5-.17-7.59-.45-11.23,3.68-1.26,6.54-1.77,10.51-1.3,2.82.33,10.54,4.63,9.69-2.03-.26-2.07-1.99-1.75-2.23-3.41,10.56-3.29,20.44-8.63,26.87-17.82.48-.69,1.1-3.09,2.09-2.84,2.08,2.63,4.49,5.15,6.96,7.42,4.55,4.16,8.27,6.09,11.6,11.76,6.71,11.43,6.48,24.07,3.23,36.52ZM148.47,79.7c-1.27-1.15-6.42-2.59-8.23-2.78-4.09-.43-17.56-.23-16.78,5.97.61,4.83,8.12.88,11.42.7,4.75-.27,6.16,1.09,10.01,1.71s6.3-3.12,3.57-5.59ZM126.02,96.27c-.68.21-1.71,1.46-1.92,2.13-1.48,4.7,7.25,7.52,10.73,7.48,3.73-.04,13.45-4.06,9.74-8.6-2.63-3.23-5.31.58-7.32,1.24-5.97,1.97-7.61-3.35-11.24-2.26ZM102.23,125.01c-3.44.76-2.64,4.54-.57,6.67,5,5.14,12.82,6.68,19.56,4.7,3.33-.98,13.26-6.77,8.52-10.76-2.93-2.47-4.87.87-6.76,2.19-4.21,2.95-8.94,3.67-13.57,1.07-2.59-1.45-3.93-4.58-7.17-3.87Z" style="fill:#fccbbc;"/><path d="M136.93,164.44c6.3,10.98,22.12,12.76,32.95,17.58,16.52,7.36,22.4,17.14,23.64,35.2.21,3.05-.39,6.77,0,9.65h-20.66c.22-1.35.09-4.14,0-5.61-1.29-20.26-19.43-33.11-38.97-26.86-6.74,2.15-12.53,6.46-18.7,9.57-11.89-7.33-23.77-14.73-38.22-9.45-4.95,1.81-9.54,5.33-12.79,9.44l.82-3.45c6.54-13.92,25.23-17.37,27.48-33.83.38-.5,1.01-1.63,1.35-2.25,3.09.69,5.72,2.58,8.74,3.61,7.76,2.63,15.71,2.8,23.6.66,3.83-1.04,7.01-3.25,10.77-4.27Z" style="fill:#fdcbbc;"/><path d="M37.67,175.22c1.41-.97,1.91-1.71,2.2-3.41,2.26-13.16,2.56-28.63,4.09-42.17,2.72-24.16,5.36-50.24,11.08-73.8.67-2.76,3.25-13.46,4.62-15.14.56-.7,4.25-2.41,5.29-2.79,1.47-.55,5.75-1.9,7.08-1.9h9.66c-1.77,2.65-5.42,4.13-4.92,7.83.1.76.89,1.76.88,2.05-.02.72-4.09,5.61-4.04,7.19-3.41-.18-4.2,1.09-5.27,3.94-2.62,7.05-2.43,15.14-2.37,22.56-4.54-.64-9.39,1.46-10.76,6.08-1.01,3.41-.83,14.97.52,18.3s3.36,4.44,6.33,5.79c.72.33,3.41.53,3,1.48-.8,1.85-6.67,5.07-8.46,7.72-3.32,4.91-3.14,11.82.38,16.54,1.98,2.66,6.55,4.73,8.02,7.25s.27,7.31,4.33,7.31c4.78,0,3.46-6.83,2.1-9.7-2.9-6.12-12.11-7.39-10.22-15.45.21-.91.99-2.18,1.6-2.88.45-.52,4.43-3.78,4.94-4.04.46-.24.84-.28,1.34-.22,2.39,8.92,7.84,17.99,14.42,24.43,1.04,1.01,6.72,5.25,6.92,5.66,1.05,2.14-.91,10.44-2.1,12.72-4.35,8.29-18.82,10.52-26.99,13.88-3.36,1.38-9.09,2.83-7.51,7.53-1.29-.19-5.82,3.67-7.19,4.49-.09-.08-2.13-.88-2.25-.9-1.17-1.35-5.87-10.13-6.74-10.33Z" style="fill:#c6d0da;"/><path d="M192.17,149.17l.9,8.98c-2.1.1-3.13,1.75-3.19,3.82s.62,8,1.04,10.23c.19,1.01,1.15,2.77,2.14,3.02l-5.84,9.43c-5.84-5.27-14.46-8.92-21.77-11.69-12.3-4.64-24.61-5.33-25.38-21.78-.23-4.88,1.33-3.75,4.27-6.5,7.98-7.44,14.56-16.16,17.28-26.96.5-.06.89-.02,1.34.22.51.27,4.49,3.53,4.94,4.04.62.71,1.39,1.98,1.6,2.88,1.9,8.06-7.31,9.33-10.22,15.45-1.36,2.87-2.67,9.7,2.1,9.7,4.07,0,2.94-4.91,4.33-7.31s5.73-4.48,7.75-7.07c4.3-5.52,4.02-12.93-.63-18.16-1.31-1.47-7.16-5.38-7.2-6.72,3.7-1.24,7.52-2.65,9.21-6.52,1.47-3.36,1.61-13.85.92-17.54-1-5.27-5.99-7.81-11.03-7.16,1.36-16.44-3.81-32.13-15.72-43.57h9.66c1.35,0,5.59,1.36,7.08,1.9,6.26,2.29,5.9,3.81,7.74,9.78,6.21,20.18,8.8,44.79,11.4,65.85,1.26,10.2,1.54,21.8,3.32,31.72.38,2.11,1.49,4.12,3.93,3.93Z" style="fill:#c6d0da;"/><path d="M100.1,32.85c1.36-.51,2.6-1.19,4.04-1.57,27.51-7.26,53.55,12.87,53.89,41.09l-6.05-7.2c-5.82-4.95-13.6-9.86-15.4-17.83-.51-2.27.28-6.95-3.85-6.72s-3.16,5.7-3.64,8.42c-3.19,18.19-27.23,22.76-41.57,28.27-.74-.86-.54-2.75-.47-3.84.79-12.52,2.19-24.44,9.35-35.11,1.21-1.8,3.36-3.44,3.7-5.51Z" style="fill:#bc684d;"/><path d="M64.17,203.96c-4.76,6.03-7,14.83-6.29,22.46h-20.66c.3-2.9-.2-6.23,0-9.2.41-5.92,1.79-13.6,4.41-18.95,1.1-2.25,5.36-6.98,5.73-8.22.26-.87-.11-3.1-.72-3.61,1.36-.83,5.9-4.68,7.19-4.49.48.07,1.04,1.07,1.66,1.25,2.71.79,7.94-2.36,10.8-3.38,8.56-3.05,20.43-5.61,26.16-13.14-2.24,16.46-20.94,19.91-27.48,33.83l-.82,3.45Z" style="fill:#e9ad9c;"/><path d="M100.1,32.85c-.34,2.08-2.49,3.71-3.7,5.51-7.16,10.67-8.56,22.59-9.35,35.11-.07,1.09-.27,2.98.47,3.84-2.84,1.09-5.98,2.29-8.7,3.65-.78.39-5.87,3.81-6.11,3.54-.13-9.42-.45-18.61,2.72-27.63.2-1.68-.96-2.59-1.82-3.8-.05-1.58,4.02-6.47,4.04-7.19,4.36,1.97,5.87-2.32,8.53-4.72,4.32-3.91,8.56-6.28,13.93-8.3Z" style="fill:#924c35;"/><path d="M93.81,164.44c2.22-4.03,2.92-8.06,3.6-12.58,11.41,4.75,24.28,5.02,35.66-.01,1.22,4.56,1.44,8.37,3.85,12.59-3.76,1.02-6.95,3.23-10.77,4.27-7.89,2.14-15.84,1.97-23.6-.66-3.03-1.03-5.65-2.92-8.74-3.61Z" style="fill:#e9ad9c;"/><path d="M87.53,96.17c-3.25.84-1.76,5.48.45,7.19-1.11,1.66-.2,4.04,0,5.84-5.07-2.26-9.88-.15-13.02,4.04-4.01-15.29-4.21-22.72,12.13-28.29.27,3.64-.58,7.73.45,11.23Z" style="fill:#e9ad9c;"/><path d="M87.98,109.2c3.73,1.66,5.95,6.51,5.28,10.45-.3,1.81-2.06,3.76-2.14,5.27-3.51,2-6.6,3.57-10.78,2.25-2.71-4.66-4.04-8.77-5.39-13.92,3.14-4.19,7.96-6.3,13.02-4.04Z" style="fill:#e5979d;"/><path d="M155.79,113.24c-1.49,5.72-2.75,9.23-5.84,14.37-1.68-.37-3.06.2-4.97-.2-9.3-1.95-10.31-15.3-1.31-18.43,5.08-1.77,8.96.24,12.12,4.26Z" style="fill:#e5979d;"/><path d="M91.12,124.92c-.11,2.1,3.52,9.94,4.71,12.14,1.74,3.23,4.1,5.93,6.07,8.97-9.08-3.49-16.66-10.45-21.56-18.86,4.18,1.33,7.27-.25,10.78-2.25Z" style="fill:#e9ad9c;"/><path d="M164.78,103.81v-15.94c0-1.58,3.31-2.33,4.26-.21.52,1.18.4,11.43-.06,12.94-.55,1.79-2.37,3.07-4.19,3.22Z" style="fill:#e9ad9c;"/><path d="M65.97,103.81c-1.83-.15-3.65-1.42-4.19-3.22-.46-1.51-.59-11.76-.06-12.94.94-2.12,4.26-1.37,4.26.21v15.94Z" style="fill:#e9ad9c;"/><path d="M109.98,226.87h-44.91c.99-6.19-1.08-9.05,2.46-15.73,7.17-13.51,24.14-14.55,35.71-6.06-7.89,9.24-.44,15.98,6.74,21.78Z" style="fill:#e6eaee;"/><path d="M165.67,226.87h-44.91c7.22-5.74,14.6-12.62,6.74-21.78,11.57-8.49,28.54-7.46,35.71,6.06,3.48,6.55,1.6,9.44,2.46,15.73Z" style="fill:#e6eaee;"/><path d="M108.96,209.43c2.84-.83,3.43,2.55,6.18,2.66,3.05.13,2.76-1.92,4.7-2.54,2.86-.92,4.52,1.73,3.96,4.42-.34,1.61-1.88,3.05-3.03,4.15-1.05,1-4.73,4.09-5.97,3.75-1.32-.37-7.1-5.7-7.61-7.24-.61-1.83-.47-4.54,1.77-5.19Z" style="fill:#87a6d7;"/><path d="M57.88,226.42c.01.15-.02.3,0,.45h-20.66c.03-.14-.02-.3,0-.45h20.66Z" style="fill:#fccbbc;"/><path d="M102.23,125.01c3.24-.72,4.58,2.42,7.17,3.87,4.63,2.6,9.37,1.88,13.57-1.07,1.88-1.32,3.83-4.66,6.76-2.19,4.74,4-5.18,9.78-8.52,10.76-6.74,1.98-14.56.44-19.56-4.7-2.07-2.13-2.87-5.91.57-6.67Z" style="fill:#030202;"/><path d="M148.47,79.7c2.73,2.47.4,6.23-3.57,5.59s-5.26-1.98-10.01-1.71c-3.3.19-10.81,4.13-11.42-.7-.78-6.2,12.68-6.39,16.78-5.97,1.8.19,6.96,1.63,8.23,2.78Z" style="fill:#030202;"/><path d="M126.02,96.27c3.63-1.09,5.27,4.23,11.24,2.26,2.01-.66,4.69-4.47,7.32-1.24,3.7,4.54-6.01,8.56-9.74,8.6-3.48.04-12.22-2.78-10.73-7.48.21-.67,1.24-1.93,1.92-2.13Z" style="fill:#030202;"/><path d="M87.98,103.36c-2.21-1.7-3.7-6.34-.45-7.19s4.62,2.63,8.3,2.73c4.18.11,4.13-2,6.4-2.62,3.97-1.07,6.23,3.21,3.03,6.17-4.32,3.99-12.59,4.51-17.29.9Z" style="fill:#030202;"/></g></svg>