<?xml version="1.0" encoding="UTF-8"?><svg id="a" xmlns="http://www.w3.org/2000/svg" viewBox="0 0 230.86 230.01"><g id="b"><path d="M190.7,208.44l-125.02.04c-7.54-.73-9.9-5.18-10.51-12.25,1.64-24.87-2.08-52.29,0-76.84.47-5.58,2.04-9.58,8.1-10.44,4.17-.6,21.04-.66,24.78.32,7.23,1.89,21.64,24.07,29.01,24.07h52.6c-7.4,19.8,4.41,37.43,25.25,38.81-1.07,12.1,3.11,25.86-4.21,36.28ZM68.88,170.68c-1.78,1.72-.44,4.45,1.49,5.26s25.73.89,28.96.38c5.35-.83,5.27-6.05.1-6.73-5.74-.76-20.14-.51-26.17,0-1.35.12-3.38.12-4.38,1.09ZM68.58,189.83v5.96h117.85v-5.96h-117.85Z" style="fill:#fcb856;"/><path d="M194.91,172.16c1.39.09,2.82-.07,4.21,0-1.52,9.31,5.01,34.44-8.42,36.29,7.32-10.42,3.13-24.18,4.21-36.28Z" style="fill:#dfa24c;"/><rect x="68.58" y="189.83" width="117.85" height="5.96" style="fill:#0b0804;"/><path d="M68.88,170.68c1-.96,3.03-.97,4.38-1.09,6.03-.52,20.42-.77,26.17,0,5.17.69,5.25,5.9-.1,6.73-3.23.5-26.95.46-28.96-.38s-3.27-3.54-1.49-5.26Z" style="fill:#0b0804;"/><path d="M134.94,20.5c2.75,3.53,9.7,24.13,11.99,25.52,2.91,1.77,14.41-.88,19.15,1.05,5.73,2.33,18.33,20.12,24.67,24.21l.84,2.53-.05,42.66c33.72-3.71,44.93,42.27,13.42,54.51-1.64,15.12,6.9,39.54-13.83,43.36l-127.12.03c-7.78-.52-13.75-7.25-14.6-14.89l-.08-72.3L8.84,92.48c-1.04-1.09-.98-2.57-.43-3.89L67.99,18.77l4.01.28,21.47,18.08,38.32-17.32,3.14.68ZM87.18,40.52c.58-.77-13.39-12.37-14.36-13.02s-2.03-1.64-3.31-.96L15.7,89.16l33.19,29.84c.84-10.05,6.97-16.49,17.26-16.46l-18.12-40.05c-.32-1.12-.86-3.18-.27-4.12,1.23-1.97,34.76-15.04,39.43-17.85ZM95.59,106.34v-57.8c0-.09,1.17-1.27,1.26-1.27h43.34c-2.72-5.83-5.05-13.75-8.18-19.2-.44-.77.08-1.27-1.44-1.06L54.35,61.64l18.49,40.94c7.9,1.12,15.78-1.28,22.76,3.76ZM162.08,53.19h-60.6v59.48c5.29,5.11,10.06,10.95,16.59,14.59h54.36c4.03-3.82,8.33-7.08,13.25-9.67l-.04-40.78h-16.41c-1.75,0-7.15-4.75-7.15-6.33v-17.3ZM180.6,70.9c.38-1.46-.61-1.69-1.25-2.53-3.08-4.03-7.75-7.4-11.36-10.96-.72,12.74-.91,14.71,12.61,13.5ZM190.7,208.44c13.43-1.85,6.9-26.98,8.42-36.29-1.39-.07-2.82.1-4.21,0-20.84-1.38-32.64-19.01-25.25-38.81h-52.6c-7.38,0-21.78-22.18-29.01-24.07-3.74-.98-20.61-.91-24.78-.32-6.06.86-7.63,4.86-8.1,10.44-2.08,24.55,1.64,51.97,0,76.84.61,7.07,2.97,11.51,10.51,12.25l125.02-.04ZM217.55,144.36c0-12.25-9.91-22.18-22.12-22.18s-22.12,9.93-22.12,22.18,9.91,22.18,22.12,22.18,22.12-9.93,22.12-22.18Z" style="fill:#060606;"/><path d="M95.59,106.34c-6.97-5.04-14.86-2.64-22.76-3.76l-18.49-40.94,76.23-34.62c1.52-.2,1,.3,1.44,1.06,3.13,5.45,5.46,13.36,8.18,19.2h-43.34c-.09,0-1.26,1.18-1.26,1.27v57.8Z" style="fill:#5eb3f9;"/><path d="M87.18,40.52c-4.66,2.81-38.19,15.88-39.43,17.85-.59.94-.05,3,.27,4.12l18.12,40.05c-10.29-.04-16.42,6.41-17.26,16.46l-33.19-29.84,53.81-62.61c1.28-.68,2.31.29,3.31.96s14.94,12.24,14.36,13.02Z" style="fill:#006492;"/><path d="M162.08,53.19v17.3c0,1.58,5.41,6.33,7.15,6.33h16.41l.04,40.78c-4.92,2.59-9.23,5.85-13.25,9.67h-54.36c-6.53-3.64-11.3-9.48-16.59-14.59v-59.48h60.6ZM111.16,67.53c-2.45,1.76-1.31,5.42,1.71,5.88,11.86-.86,25.42,1.22,37.06.07,6.56-.65,4.74-5.96,3.32-5.96h-42.08ZM109.87,81.87v5.96h67.42v-5.96h-67.42ZM109.87,96.22v5.96h67.24v-5.96h-67.24ZM109.87,110.56v5.96h67.24v-5.96h-67.24Z" style="fill:#e6f1fa;"/><path d="M180.6,70.9c-13.52,1.22-13.33-.76-12.61-13.5,3.61,3.57,8.27,6.93,11.36,10.96.65.85,1.63,1.07,1.25,2.53Z" style="fill:#afb8bf;"/><rect x="109.87" y="81.87" width="67.42" height="5.96" style="fill:#060606;"/><rect x="109.87" y="96.22" width="67.24" height="5.96" style="fill:#060606;"/><rect x="109.87" y="110.56" width="67.24" height="5.96" style="fill:#060606;"/><path d="M111.16,67.53h42.08c1.43,0,3.25,5.31-3.32,5.96-11.64,1.15-25.2-.93-37.06-.07-3.02-.46-4.16-4.13-1.71-5.88Z" style="fill:#060606;"/><path d="M217.55,144.36c0,12.25-9.91,22.18-22.12,22.18s-22.12-9.93-22.12-22.18,9.91-22.18,22.12-22.18,22.12,9.93,22.12,22.18ZM207.28,132.64c-3.12.91-12.34,13.92-15.76,15.5-3.62,1.68-5.96-5.52-8.82-5.54-2.34-.01-3.55,2.89-2.53,5.07.24.51,7.5,7.78,8.02,8.02,1.5.7,2.68.7,4.18,0,1.16-.54,17.56-16.98,18.1-18.14,1.32-2.88.33-5.94-3.18-4.91Z" style="fill:#24c33a;"/><path d="M207.28,132.64c3.51-1.02,4.51,2.03,3.18,4.91-.53,1.17-16.94,17.6-18.1,18.14-1.5.7-2.68.7-4.18,0-.51-.24-7.78-7.51-8.02-8.02-1.02-2.18.19-5.08,2.53-5.07,2.86.02,5.19,7.21,8.82,5.54,3.42-1.58,12.63-14.59,15.76-15.5Z" style="fill:#060606;"/></g></svg>