<?xml version="1.0" encoding="UTF-8"?><svg id="a" xmlns="http://www.w3.org/2000/svg" viewBox="0 0 230.86 230.01"><g id="b"><path d="M165.46,61.78l.83,2.08,4.21,4.22c-3.64,4.27-8.66,7.99-12.2,12.25-16.88,20.27-17.13,51.66-.39,72.13,2.77,3.39,10.6,9.33,12.2,12.24,1.28,2.31-.54,1.41-1.68,2.53l-4.21,4.22c-4.27-3.65-7.97-8.67-12.22-12.23-20.22-16.91-51.54-17.17-71.97-.39-3.38,2.78-9.31,10.62-12.21,12.23-2.31,1.28-1.41-.54-2.52-1.69l-4.21-4.22c3.64-4.27,8.66-7.99,12.2-12.25,16.88-20.27,17.13-51.66.39-72.13-2.77-3.39-10.6-9.33-12.2-12.24-1.28-2.31.54-1.41,1.68-2.53l4.21-4.22c4.27,3.65,7.97,8.68,12.22,12.23,20.17,16.85,51.55,17.03,71.97.39,3.41-2.78,9.28-10.61,12.21-12.23.6-.33.88-.58,1.69-.4ZM133.56,116.62c0-9.82-7.95-17.79-17.75-17.79s-17.75,7.96-17.75,17.79,7.95,17.79,17.75,17.79,17.75-7.96,17.75-17.79Z" style="fill:#90b1f8;"/><path d="M173.71,17.29c53.95-6.27,55.73,80.8-2.54,72.95-1.62-.22-7.83-1.5-7.36-3.56.25-1.11,14.36-14.93,15.95-16.09,1.31-.96,5.43-3.19,6.75-2.54,2.63,1.31,9.42,13.11,12.88,4.43,1.84-4.6-6.01-7.41-6.84-10.48-.64-2.34,1.31-4.46,1.53-6.66.88-8.66-6.96-17.02-15.58-17.23-2.94-.07-5.9,2.22-8.19,1.59-2.5-.68-9.14-12.35-12.82-4.94-2.68,5.39,6.48,8.55,7.03,11.52.11.6-1.56,4.53-2.05,5.29-1,1.57-15.62,16.68-16.78,16.94-2.14.48-3.5-6.51-3.68-8.09-2.37-20.91,10.15-40.62,31.72-43.13Z" style="fill:#e0e8fa;"/><path d="M49.11,17.29c25.67-2.82,43.72,18.93,40.38,43.85-.22,1.62-1.49,7.84-3.55,7.38-1.1-.25-14.9-14.39-16.06-15.98-.95-1.31-3.19-5.44-2.53-6.76,1.3-2.64,13.08-9.44,4.42-12.91-4.59-1.84-7.4,6.02-10.45,6.86-2.33.64-4.45-1.31-6.64-1.53-8.64-.88-16.98,6.97-17.19,15.62-.07,2.95,2.21,5.91,1.59,8.21-.68,2.5-12.33,9.16-4.93,12.85,5.38,2.69,8.53-6.49,11.49-7.05.6-.11,4.52,1.57,5.28,2.05,1.56,1,16.64,15.66,16.9,16.82.48,2.15-6.49,3.5-8.08,3.68C7.07,96.36,2.18,22.45,49.11,17.29Z" style="fill:#e0e8fa;"/><ellipse cx="53.25" cy="53.93" rx="7.14" ry="7.16" style="fill:#eac56f;"/><ellipse cx="178.36" cy="53.92" rx="7.14" ry="7.16" style="fill:#eac56f;"/><path d="M133.56,116.62c0,9.82-7.95,17.79-17.75,17.79s-17.75-7.96-17.75-17.79,7.95-17.79,17.75-17.79,17.75,7.96,17.75,17.79ZM125.12,116.62c0-5.15-4.17-9.33-9.31-9.33s-9.31,4.18-9.31,9.33,4.17,9.33,9.31,9.33,9.31-4.18,9.31-9.33Z" style="fill:#040506;"/><ellipse cx="115.81" cy="116.62" rx="9.31" ry="9.33" style="fill:#f8f8f8;"/><path d="M162.11,216.18c.81-.16,1.71-1.65,3.77-1.76,9.05-.47,13.06,3.68,24.83-.37,39.53-13.6,28.85-75.89-18.07-71.27-1.86.18-9.95,1.39-8.45,4.23.51.98,14.11,14.57,15.56,15.63,1.31.96,5.43,3.19,6.75,2.54,3.32-1.65,7.35-11.54,12.22-5.5,4.01,4.97-5.27,8.23-6.17,11.55-.62,2.28,1.64,5.27,1.59,8.21-.14,8.11-7.57,15.54-15.64,15.68-2.94.05-5.92-2.21-8.19-1.59-2.5.68-9.14,12.35-12.82,4.94-2.68-5.39,6.48-8.55,7.03-11.52.11-.58-1.33-3.98-1.77-4.73-1.73-2.99-12.29-13.28-15.36-15.82-.79-.65-1.27-1.88-2.51-1.68-3.12.73-3.2,16.81-2.95,19.82.34,4.1,4.2,9.75-.85,12.24-1.43-.6-3.5,1.09-5.44-1.72-1.3-1.89-2.87-11.32-2.97-13.9-.3-7.69,2.32-14.26,3.86-21.54-12.85-5.95-28.55-5.95-41.41,0,3.57,11.96,5.39,22.03,1.37,34.24-11.07,33.6-55.93,41.76-78.3,14.29-20.18-24.79-8.99-63.46,21.86-72.54,11.95-3.52,21.29-1.66,32.87,1.77,5.79-12.74,6.34-29.47-.52-41.77C35.41,111.76-3.38,76.38,10.77,37.93,25.18-1.23,81.74-1.07,96.01,38.16c4.56,12.53,2.84,23.06-.91,35.46,12.66,5.59,29.51,6.53,41.68-.52-16.25-37.34,19.67-76.34,58.14-61.51,39.19,15.11,37.71,72.5-2.06,85.66-12.18,4.03-22.23,2.2-34.16-1.38-5.91,12.61-6.26,29.59.52,41.77,19.95-8.85,44.47-2.35,56.61,15.83,21.86,32.73-4.24,75.14-43.11,71.05-5.15-.54-12.38-1.58-10.63-8.33ZM49.11,17.29C2.18,22.45,7.07,96.36,59.73,90.37c1.59-.18,8.56-1.54,8.08-3.68-.26-1.16-15.34-15.82-16.9-16.82-.75-.48-4.68-2.16-5.28-2.05-2.96.55-6.11,9.73-11.49,7.05-7.39-3.7,4.25-10.35,4.93-12.85.63-2.3-1.66-5.26-1.59-8.21.21-8.64,8.55-16.5,17.19-15.62,2.19.22,4.31,2.17,6.64,1.53,3.06-.83,5.86-8.7,10.45-6.86,8.66,3.47-3.12,10.28-4.42,12.91-.65,1.32,1.58,5.45,2.53,6.76,1.16,1.59,14.95,15.73,16.06,15.98,2.06.46,3.33-5.76,3.55-7.38,3.34-24.91-14.71-46.67-40.38-43.85ZM173.71,17.29c-21.57,2.51-34.08,22.22-31.72,43.13.18,1.59,1.53,8.58,3.68,8.09,1.16-.26,15.78-15.37,16.78-16.94.48-.75,2.16-4.69,2.05-5.29-.55-2.97-9.71-6.13-7.03-11.52,3.69-7.41,10.33,4.26,12.82,4.94,2.3.63,5.25-1.66,8.19-1.59,8.63.21,16.46,8.57,15.58,17.23-.22,2.2-2.16,4.32-1.53,6.66.83,3.06,8.68,5.87,6.84,10.48-3.46,8.68-10.25-3.12-12.88-4.43-1.32-.65-5.44,1.58-6.75,2.54-1.59,1.16-15.7,14.99-15.95,16.09-.46,2.06,5.75,3.34,7.36,3.56,58.28,7.85,56.5-79.23,2.54-72.95ZM60.4,53.93c0-3.95-3.2-7.16-7.14-7.16s-7.14,3.2-7.14,7.16,3.2,7.16,7.14,7.16,7.14-3.2,7.14-7.16ZM185.5,53.92c0-3.95-3.2-7.16-7.14-7.16s-7.14,3.21-7.14,7.16,3.2,7.16,7.14,7.16,7.14-3.21,7.14-7.16ZM165.46,61.78c-.81-.18-1.09.06-1.69.4-2.93,1.62-8.8,9.45-12.21,12.23-20.42,16.64-51.8,16.46-71.97-.39-4.25-3.55-7.96-8.58-12.22-12.23l-4.21,4.22c-1.14,1.12-2.96.21-1.68,2.53,1.61,2.91,9.43,8.85,12.2,12.24,16.75,20.47,16.49,51.86-.39,72.13-3.54,4.26-8.56,7.97-12.2,12.25l4.21,4.22c1.11,1.15.21,2.96,2.52,1.69,2.9-1.61,8.83-9.45,12.21-12.23,20.42-16.78,51.74-16.53,71.97.39,4.25,3.55,7.96,8.58,12.22,12.23l4.21-4.22c1.14-1.12,2.96-.21,1.68-2.53-1.61-2.91-9.43-8.85-12.2-12.24-16.75-20.47-16.49-51.86.39-72.13,3.54-4.26,8.56-7.97,12.2-12.25l-4.21-4.22-.83-2.08ZM46.57,142.99c-22.19,3.01-35.07,27.98-27.98,48.7,13.65,39.86,76.42,28.75,71.03-18.87-.18-1.59-1.53-8.58-3.68-8.09-1.16.26-15.78,15.37-16.78,16.94-.48.75-2.16,4.69-2.05,5.29.55,2.97,9.71,6.13,7.03,11.52-3.69,7.41-10.33-4.26-12.82-4.94-2.3-.63-5.25,1.66-8.19,1.59-8.63-.21-16.46-8.57-15.58-17.23.22-2.2,2.16-4.32,1.53-6.66-.83-3.06-8.68-5.87-6.84-10.48,3.46-8.68,10.25,3.12,12.88,4.43,1.32.65,5.44-1.58,6.75-2.54,1.59-1.16,15.7-14.99,15.95-16.09s-.63-1.49-1.41-1.93c-4.05-2.29-15.13-2.26-19.83-1.63ZM60.4,179.31c0-3.95-3.2-7.16-7.14-7.16s-7.14,3.2-7.14,7.16,3.2,7.16,7.14,7.16,7.14-3.2,7.14-7.16ZM185.5,179.31c0-3.95-3.2-7.16-7.14-7.16s-7.14,3.2-7.14,7.16,3.2,7.16,7.14,7.16,7.14-3.2,7.14-7.16Z" style="fill:#050506;"/><path d="M162.11,216.18c-2.95.57-6.59-3.21-9.26-4.22,3.77-4.32-1.92-10.38-6.74-5.91,0-.78-4.56-9.08-5.05-9.28,5.05-2.49,1.19-8.14.85-12.24-.25-3-.16-19.09,2.95-19.82,1.24-.2,1.73,1.03,2.51,1.68,3.06,2.54,13.62,12.83,15.36,15.82.44.75,1.87,4.15,1.77,4.73-.55,2.97-9.71,6.13-7.03,11.52,3.69,7.41,10.33-4.26,12.82-4.94,2.27-.62,5.25,1.64,8.19,1.59,8.08-.14,15.51-7.57,15.64-15.68.05-2.94-2.21-5.93-1.59-8.21.9-3.32,10.18-6.58,6.17-11.55-4.86-6.04-8.9,3.85-12.22,5.5-1.32.65-5.44-1.58-6.75-2.54-1.45-1.06-15.04-14.65-15.56-15.63-1.5-2.84,6.59-4.05,8.45-4.23,46.93-4.62,57.6,57.67,18.07,71.27-11.77,4.05-15.78-.1-24.83.37-2.07.11-2.97,1.6-3.77,1.76Z" style="fill:#e0e8fa;"/><path d="M152.85,211.96c-2.68,3.07-7.22.89-7.55-3.04-.12-1.35.82-2.43.82-2.87,4.82-4.47,10.5,1.59,6.74,5.91Z" style="fill:#0b0b0c;"/><path d="M46.57,142.99c4.69-.64,15.78-.66,19.83,1.63.78.44,1.67.79,1.41,1.93s-14.36,14.93-15.95,16.09c-1.31.96-5.43,3.19-6.75,2.54-2.63-1.31-9.42-13.11-12.88-4.43-1.84,4.6,6.01,7.41,6.84,10.48.64,2.34-1.31,4.46-1.53,6.66-.88,8.66,6.96,17.02,15.58,17.23,2.94.07,5.9-2.22,8.19-1.59,2.5.68,9.14,12.35,12.82,4.94,2.68-5.39-6.48-8.55-7.03-11.52-.11-.6,1.56-4.53,2.05-5.29,1-1.57,15.62-16.68,16.78-16.94,2.14-.48,3.5,6.51,3.68,8.09,5.39,47.63-57.38,58.74-71.03,18.87-7.09-20.72,5.79-45.69,27.98-48.7Z" style="fill:#e0e8fa;"/><ellipse cx="53.25" cy="179.31" rx="7.14" ry="7.16" style="fill:#eac56f;"/><ellipse cx="178.36" cy="179.31" rx="7.14" ry="7.16" style="fill:#eac56f;"/></g></svg>