<?xml version="1.0" encoding="UTF-8"?><svg id="a" xmlns="http://www.w3.org/2000/svg" viewBox="0 0 230.86 230.01"><g id="b"><path d="M171.58,224.86c0,1.17.02,2.34,0,3.5l-144.03-.42c-3.58-1.23-5.66-3.6-6.76-7.22l.19-162.98c2-3.5,4.73-6.28,8.85-6.87,6.14-.87,39.91,1.39,41.38-.08.28-61.5,88.74-61.54,89.01,0,1.47,1.46,35.24-.8,41.38.08,4.12.59,6.86,3.37,8.85,6.87l.33,162.25c-2.25,10.19-11.84,8.4-20.02,8.37-.01-1.16,0-2.34,0-3.5s-.02-2.34,0-3.5c1.13-1.1,12.77,2.21,13.1-2.18l-.03-158.3c-.45-2.4-1.65-2.83-3.86-3.13-8.65-1.15-25.23-.3-34.51.04-5.74.21-7-1.19-7.81,5.75-.37,3.16,6.24.41,6.94.38,10.98-.58,22.17.43,33.16,0v151.33H33.69v-127.71c1.16-.01,2.33,0,3.49,0s2.33-.02,3.5,0v120.72c2.02.04,4.07-.06,6.11,0,47.91,1.36,96.07-1.02,144,0V70.9c-9.85.31-19.83-.42-29.67,0-2.03.09-5.36-.52-6.98.44-.9.54-2.39,3.95-3.51,5.22-19.89,22.68-49.89,22.68-69.78,0-1.12-1.28-2.61-4.69-3.51-5.22-1.62-.96-4.95-.36-6.98-.44-7.55-.32-15.99-.22-23.56,0-2.03.06-4.09-.05-6.11,0-.26,1.59.39,9.21-.03,9.59-.45.41-2.91-.64-3.46.91-1.94.13-3.08.04-3.5-2.19-.81-4.32.6-10.71,0-15.31,11,.44,22.19-.58,33.17,0,.7.04,7.31,2.78,6.94-.38-.81-6.93-2.07-5.54-7.81-5.75-9.24-.34-25.92-1.2-34.52-.04-1.15.16-3.88,1.12-3.88,2.23v160.07l144.01,1.31c.01,1.16,0,2.34,0,3.5ZM104.27,12.85c-15.67,5-26.3,19.6-26.28,36.08.02,16.48,10.69,31.06,26.37,36.02,15.53,4.91,32.45-.71,41.97-13.94,9.52-13.24,9.5-31.1-.05-44.32-9.56-13.21-26.49-18.79-42-13.84Z" style="fill:#080b0b;"/><path d="M65.98,57.78l.87,6.12c-10.98-.58-22.17.43-33.17,0,.6,4.6-.81,10.99,0,15.31.42,2.22,1.55,2.32,3.5,2.19-.46,1.29.32,4.47,0,6.12-1.17,0-2.33-.02-3.5,0v127.71h164.08V63.91c-11,.43-22.18-.58-33.16,0l.87-6.12c9.28-.34,25.86-1.19,34.51-.04,2.21.29,3.41.73,3.86,3.13l.03,158.3c-.32,4.39-11.97,1.09-13.1,2.18-.01,1.16,0,2.34,0,3.5h-6.09v-3.52h-7.01v3.52h-6.09c0-1.17.02-2.34,0-3.5l-144.01-1.31V59.97c0-1.11,2.73-2.07,3.88-2.23,8.59-1.16,25.28-.3,34.52.04Z" style="fill:#70e3be;"/><rect x="177.67" y="221.34" width="7.01" height="7.03" style="fill:#080b0b;"/><path d="M70.34,70.9c16.06,38.43,74.66,38.49,90.76,0,9.84-.42,19.82.31,29.67,0v137.33c-47.93-1.02-96.09,1.36-144,0V70.9c7.58-.22,16.01-.32,23.56,0ZM171.58,84.03c2.04-9.99-9.07-9.89-6.99,0h6.99ZM184.67,84.03c2.04-9.99-9.07-9.89-6.99,0h6.99ZM65.89,108.61c-.26-.23-6.61-.28-6.85-.04l-4.91,31.5c8.6,4.44,7.03-7.08,8.38-12.74.24-1,.29-2.87,1.72-1.31.78.85,2.31,12.07,3.92,14.01.91,1.1,5.84,1.31,6.47.77.53-.45,2.71-11.42,3.49-13.56.32-.87.62-2.79,1.83-1.22.45.58,1.15,12.36,2.52,14.36.97,1.42,6.5,1.67,6.15-3.3-.62-8.88-4.99-19.34-5.18-28.55-1.66.29-5.79-.56-6.85.12-1,.64-4.05,15.07-4.93,17.38-2.03.39-1.03-.94-1.39-2.06-.71-2.2-3.76-14.83-4.36-15.35ZM100.01,108.52h-6.11v24.93c0,3.64,8.86,8.32,12.57,8.23,3.44-.09,11.87-4.88,11.87-8.23v-24.93h-6.11v22.31c0,5.09-12.22,5.09-12.22,0v-22.31ZM134.09,118.96c-2.12-3.32,3.78-3.87,6.33-3.26,2.16.52,3.58,3.22,6.14,2.36.65-.22,3.03-3.56,3.03-3.86-.02-.94-3.86-3.83-5.06-4.37-12.02-5.4-23.12,6.06-14.88,14.04,2.15,2.08,17.97,5.67,11.74,9.94-6.78,4.64-12.3-8.22-15.65-.77-1.09,2.42,1.36,4.36,3.14,5.6,13.84,9.63,28.68-6.43,15.94-15.1-2.07-1.41-10.4-4.09-10.72-4.58ZM177.69,108.52h-21.82c-3.09,9.81,7.85,6.3,7.85,7v26.24h6.11v-26.24c0-.69,10.95,2.82,7.85-7ZM132.31,171.49c-2.13-4.42-4.13-16.88-6.56-20.13-1.41-1.89-4.46.88-6.51.92l10.35,30.94c.73,1.06,5.62.9,6.66-.34l10.03-30.62-6.98-1.76-6.98,20.99ZM61.61,151.38v33.24h6.11v-14h12.22v14h6.11v-33.24h-6.11c-.45,9.85,3.39,14.74-9.2,13.16-5.53-.69-2.12-8.68-3.01-13.17h-6.11ZM110.37,151.5c-.88-.57-5.49-.41-6.44.74-.78,3.95-11.87,29.1-10.82,30.54.22.31,5.38,2.27,6,1.82.37-.27,1.04-5.59,2.64-6.55,1.03-.62,10.57-.73,11.24-.3,2.07,1.34-.54,10.09,8.85,5.12-1.9-3.75-10.07-30.45-11.47-31.36ZM169.83,151.38h-17.45v32.36h17.45v-6.13s-10.48,0-10.48,0v-7.01h10.48s.01-5.62.01-5.62l-10.49-.5v-6.5s10.48-.5,10.48-.5v-6.13Z" style="fill:#b3e2f6;"/><path d="M104.36,84.95c-26.29-17.52-26.72-54.47-.09-72.1,15.51-4.95,32.45.63,42,13.84,9.56,13.21,9.58,31.08.05,44.32-9.52,13.24-26.44,18.86-41.97,13.94ZM125.06,29.01c-2.3.61-10.69,11.77-12.51,12.09-2.32.41-4.5-6.47-8.15-4.78-2.8,1.29-9.09,10.1-12.17,12.4-.28,1.58,17.29,17.75,19.69,20.37l27.31-26.74c.15-.85-10.27-11.66-11.68-12.62-.88-.59-1.27-1.05-2.48-.73Z" style="fill:#fbfbfb;"/><path d="M46.78,70.9v137.33c-2.03-.06-4.09.05-6.11,0v-120.72c-1.15-.01-2.32,0-3.49,0,.32-1.65-.46-4.83,0-6.12.55-1.55,3.01-.5,3.46-.91.42-.38-.23-8,.03-9.59,2.03-.04,4.08.06,6.11,0Z" style="fill:#54c8f2;"/><path d="M161.1,70.9c-16.11,38.49-74.7,38.43-90.76,0,2.03.09,5.36-.52,6.98.44.9.54,2.39,3.95,3.51,5.22,19.89,22.68,49.89,22.68,69.78,0,1.12-1.28,2.61-4.69,3.51-5.22,1.62-.96,4.95-.36,6.98-.44Z" style="fill:#54c8f2;"/><path d="M104.27,12.85c-26.64,17.63-26.21,54.59.09,72.1-15.68-4.96-26.35-19.54-26.37-36.02-.02-16.48,10.61-31.08,26.28-36.08Z" style="fill:#99def1;"/><path d="M65.98,57.78c5.74.21,7-1.19,7.81,5.75.37,3.16-6.24.41-6.94.38l-.87-6.12Z" style="fill:#1c9f72;"/><path d="M165.47,57.78l-.87,6.12c-.7.04-7.31,2.78-6.94-.38.81-6.93,2.07-5.54,7.81-5.75Z" style="fill:#1c9f72;"/><path d="M65.89,108.61c.6.52,3.65,13.15,4.36,15.35.36,1.12-.64,2.45,1.39,2.06.88-2.3,3.93-16.74,4.93-17.38,1.06-.68,5.19.18,6.85-.12.19,9.21,4.56,19.67,5.18,28.55.35,4.97-5.18,4.71-6.15,3.3-1.37-2.01-2.08-13.79-2.52-14.36-1.21-1.56-1.51.35-1.83,1.22-.78,2.14-2.96,13.1-3.49,13.56-.63.54-5.56.33-6.47-.77-1.62-1.94-3.14-13.16-3.92-14.01-1.43-1.56-1.48.31-1.72,1.31-1.35,5.66.22,17.18-8.38,12.74l4.91-31.5c.25-.24,6.59-.18,6.85.04Z" style="fill:#060708;"/><path d="M61.61,151.38h6.11c.88,4.48-2.52,12.47,3.01,13.16,12.59,1.57,8.75-3.31,9.2-13.17h6.11v33.24h-6.11v-14h-12.22v14h-6.11v-33.24Z" style="fill:#040404;"/><path d="M110.37,151.5c1.4.9,9.57,27.6,11.47,31.36-9.39,4.97-6.78-3.78-8.85-5.12-.67-.43-10.21-.32-11.24.3-1.59.96-2.26,6.28-2.64,6.55-.62.45-5.78-1.51-6-1.82-1.05-1.43,10.04-26.59,10.82-30.54.95-1.15,5.56-1.3,6.44-.74ZM109.61,170.62c.68-.69-1.25-6.77-2.18-7.86l-3.06,7.86h5.23Z" style="fill:#060708;"/><path d="M134.09,118.96c.31.49,8.65,3.17,10.72,4.58,12.74,8.67-2.1,24.73-15.94,15.1-1.78-1.24-4.23-3.18-3.14-5.6,3.35-7.46,8.88,5.41,15.65.77,6.24-4.27-9.59-7.85-11.74-9.94-8.24-7.98,2.87-19.44,14.88-14.04,1.19.54,5.04,3.43,5.06,4.37,0,.3-2.37,3.64-3.03,3.86-2.56.86-3.98-1.84-6.14-2.36-2.55-.61-8.45-.06-6.33,3.26Z" style="fill:#060708;"/><path d="M100.01,108.52v22.31c0,5.09,12.22,5.09,12.22,0v-22.31h6.11v24.93c0,3.35-8.42,8.14-11.87,8.23-3.71.09-12.57-4.59-12.57-8.23v-24.93h6.11Z" style="fill:#040404;"/><polygon points="169.83 151.38 169.84 157.51 159.34 158.01 159.35 164.5 169.85 165 169.84 170.63 159.35 170.62 159.35 177.63 169.84 177.62 169.83 183.74 152.38 183.74 152.38 151.38 169.83 151.38" style="fill:#040404;"/><path d="M132.31,171.49l6.98-20.99,6.98,1.76-10.03,30.62c-1.04,1.24-5.93,1.4-6.66.34l-10.35-30.94c2.06-.04,5.1-2.81,6.51-.92,2.43,3.25,4.44,15.71,6.56,20.13Z" style="fill:#060708;"/><path d="M177.69,108.52c3.09,9.81-7.85,6.3-7.85,7v26.24h-6.11v-26.24c0-.69-10.95,2.82-7.85-7h21.82Z" style="fill:#040404;"/><path d="M171.58,84.03h-6.99c-2.08-9.89,9.03-9.99,6.99,0Z" style="fill:#fbfbfb;"/><path d="M184.67,84.03h-6.99c-2.08-9.89,9.03-9.99,6.99,0Z" style="fill:#fbfbfb;"/><path d="M125.06,29.01c1.21-.32,1.6.14,2.48.73,1.41.95,11.83,11.77,11.68,12.62l-27.31,26.74c-2.4-2.62-19.97-18.79-19.69-20.37,3.09-2.29,9.38-11.1,12.17-12.4,3.65-1.69,5.83,5.18,8.15,4.78,1.82-.32,10.22-11.48,12.51-12.09ZM125.88,37.73c-1.73.3-11.6,12.69-13.33,12.99-1.88.33-5.42-5.72-6.98-6-1.15-.2-4.82,3.5-4.62,4.63.16.93,9.75,10.17,11.6,10.99,1.22-.22,17.06-16.34,17.63-17.44.89-1.73-3.12-5.38-4.3-5.18Z" style="fill:#040404;"/><path d="M109.61,170.62h-5.23s3.06-7.86,3.06-7.86c.93,1.09,2.86,7.18,2.18,7.86Z" style="fill:#99def1;"/><path d="M125.88,37.73c1.18-.21,5.18,3.45,4.3,5.18-.57,1.1-16.41,17.22-17.63,17.44-1.85-.82-11.43-10.06-11.6-10.99-.2-1.12,3.47-4.83,4.62-4.63,1.56.27,5.11,6.33,6.98,6,1.73-.3,11.6-12.69,13.33-12.99Z" style="fill:#70e3be;"/></g></svg>