<?xml version="1.0" encoding="UTF-8"?><svg id="a" xmlns="http://www.w3.org/2000/svg" viewBox="0 0 230.86 230.01"><g id="b"><path d="M147.81,89.61c12.42.09,24.86-.21,37.28.17,3.9,2.01,2.23,5.67.74,8.84-5.03,10.68-15.67,22.94-22.04,32.93-5.01,7.87-9.65,16.59-14.79,24.65-14.58,22.85-29.39,45.72-44.28,68.24-2.71.68-6.02.4-6.54-2.8-.1-16.16.04-32.34-.02-48.49,4.58-1.1,3.46-10.07,8.42-10.97.11,14.05-.09,28.14,0,42.19,6.57-8.06,11.22-17.48,16.82-26.16,16.57-25.65,33.51-51.12,50.04-76.81l.45-2.49c-3.36-.04-6.74.04-10.09,0-6.16-.07-12.35.08-18.51,0l2.52-9.28Z" style="fill:#3a4549;"/><path d="M133.51,19.58c-2.17-.45-1.72,1.05-2.28,2.31-1.25,2.81-2.82,8.69-6.13,9.5-.05-.56.03-1.13,0-1.69l-.42-.83-.42.83c-1.31.48-12.73,19.89-14.31,22.78l-48.81,73.41c1.6-4.48,3.03-8.83,4.9-13.23,3.41-8.03,8.96-16.11,10.25-24.74,16.61-25.97,32.83-52.21,49.62-78.08,4.88-3.51,8.15-.1,8.48,5.13.14,2.15-.86,3.67-.88,4.6Z" style="fill:#535d61;"/><path d="M133.51,19.58c-.4,23.32.3,46.71,0,70.04,4.76.02,9.55-.04,14.31,0l-2.52,9.28c-3.63-.05-7.31.14-10.94,0-2.58-.1-7.97.94-8.89-2.46-1.59-5.88-.33-21.65-.37-28.76-.07-11.55.94-25.03,0-36.28,3.31-.82,4.88-6.7,6.13-9.5.56-1.26.12-2.76,2.28-2.31Z" style="fill:#465156;"/><path d="M61.13,125.89c-1.03,2.88-2.08,5.52-3.36,8.43,2.8.04,5.62-.04,8.41,0l-2.52,9.28c-6.25-.08-21.69,3-19.33-6.28,9.93-16.93,21.39-32.91,31.95-49.41-1.29,8.63-6.84,16.71-10.25,24.74-1.87,4.4-3.3,8.75-4.9,13.23Z" style="fill:#5a6365;"/><path d="M92.27,134.33c3.24.09,11.64-.74,13.53,2.25,1.51,2.39.74,14.22.78,18,.03,2.53-.02,5.07,0,7.59-4.95.9-3.84,9.87-8.42,10.97-.04-9.83.03-19.7,0-29.54-5.88-.01-11.8.03-17.68,0l2.52-9.28c3.08.04,6.18-.09,9.26,0Z" style="fill:#465156;"/><path d="M67.87,134.33c5.04.05,10.11-.07,15.15,0l-2.52,9.28c-5.6-.03-11.23.07-16.83,0l2.52-9.28c.56,0,1.12,0,1.68,0Z" style="fill:#535d61;"/><path d="M145.29,98.89c6.16.08,12.35-.07,18.51,0l-40.39,79.31c-5.6,8.67-10.25,18.09-16.82,26.16-.1-14.05.1-28.14,0-42.19-.02-2.53.03-5.07,0-7.59l3.56-1.92c7.8-18.03,17.4-35.34,24.21-53.77,3.63.14,7.31-.05,10.94,0Z" style="fill:#fccb35;"/><path d="M163.8,98.89c3.36.04,6.74-.03,10.09,0l-.45,2.49c-16.53,25.69-33.47,51.16-50.04,76.81l40.39-79.31Z" style="fill:#e3b62b;"/><path d="M125.09,29.7c.03.56-.05,1.13,0,1.69.94,11.25-.07,24.73,0,36.28-2.97.2-3.8,3.4-4.93,5.61-10.06,19.62-18.39,41.08-27.89,61.05-3.07-.09-6.18.04-9.26,0-5.04-.07-10.11.05-15.15,0,11.59-23.65,24.18-46.81,36.63-70.01,2.01-3.75,3.55-8.34,5.45-11.83,1.58-2.89,13-22.3,14.31-22.78.24-.09.58.07.84,0Z" style="fill:#fdd047;"/><path d="M67.87,134.33c-.56,0-1.12,0-1.68,0-2.8-.04-5.62.04-8.41,0,1.28-2.92,2.33-5.55,3.36-8.43l48.81-73.41c-1.9,3.49-3.44,8.08-5.45,11.83-12.44,23.21-25.04,46.36-36.63,70.01Z" style="fill:#fad86e;"/><path d="M125.09,29.7c-.26.07-.6-.09-.84,0l.42-.83.42.83Z" style="fill:#fdce3f;"/><path d="M125.09,67.67c.04,7.11-1.22,22.88.37,28.76.92,3.39,6.3,2.36,8.89,2.46-6.82,18.43-16.41,35.73-24.21,53.77l-3.56,1.92c-.04-3.78.73-15.6-.78-18-1.89-3-10.29-2.16-13.53-2.25,9.5-19.97,17.83-41.43,27.89-61.05,1.13-2.21,1.96-5.41,4.93-5.61Z" style="fill:#fdce3f;"/></g></svg>