<?xml version="1.0" encoding="UTF-8"?><svg id="a" xmlns="http://www.w3.org/2000/svg" viewBox="0 0 234.69 235.86"><g id="b"><path d="M90.22,8.35l56.17-.2c2.91.08,5.34,2.02,6.11,4.83l.22,68.78c17.8,20.9,17.82,47.33,0,68.24-1.89,21.26,2.39,46.53-.02,67.3-.36,3.11-1.74,5.19-4.82,6.11l-56.17.2c-2.91-.08-5.34-2.02-6.11-4.83l-.22-68.78c-17.8-20.9-17.82-47.33,0-68.24,1.89-21.26-2.39-46.53.02-67.3.36-3.11,1.74-5.19,4.82-6.11ZM98.86,21.62v6.75s40.38,0,40.38,0v-6.75s-40.38,0-40.38,0ZM98.86,41.82v6.75s40.38,0,40.38,0v-6.75s-40.38,0-40.38,0ZM105.6,62.03c-1.31.03-6.61-.42-6.74.48l.02,10.45c.65.74,5.73-2.25,6.72-2.52,8.3-2.25,18.61-2.25,26.9,0,.99.27,6.07,3.26,6.72,2.52l.02-10.45c-.13-.9-5.43-.45-6.74-.48-8.9-.2-18-.2-26.9,0ZM95.51,139.45c31.58,31.52,78.48-15.71,47.08-47.12-2.38-2.38-2.96-3.94-6.73-5.05-.55-1.47-1.85-1.82-3.13-2.34-34.77-14.05-63.74,28.04-37.22,54.51ZM105.6,161.33c-.99-.27-6.07-3.26-6.72-2.52l-.02,10.45c.13.9,5.43.45,6.74.48,8.9.2,18,.2,26.9,0,1.31-.03,6.61.42,6.74-.48l-.02-10.45c-.65-.74-5.73,2.25-6.72,2.52-8.3,2.25-18.61,2.25-26.9,0ZM98.86,183.19v6.75s40.38,0,40.38,0v-6.75s-40.38,0-40.38,0ZM98.86,203.39v6.75s40.38,0,40.38,0v-6.75s-40.38,0-40.38,0Z" style="fill:#010101;"/><path d="M132.5,161.33v8.42c-8.9.2-18,.2-26.9,0v-8.42c8.29,2.25,18.6,2.25,26.9,0Z" style="fill:#f2c937;"/><rect x="105.6" y="183.19" width="26.9" height="6.75" style="fill:#f2c937;"/><rect x="105.6" y="203.39" width="26.9" height="6.75" style="fill:#f2c937;"/><path d="M105.6,161.33v8.42c-1.31-.03-6.61.42-6.74-.48l.02-10.45c.65-.74,5.73,2.25,6.72,2.52Z" style="fill:#fef362;"/><path d="M132.5,161.33c.99-.27,6.07-3.26,6.72-2.52l.02,10.45c-.13.9-5.43.45-6.74.48v-8.42Z" style="fill:#e8a10c;"/><path d="M132.5,62.03v8.42c-8.29-2.25-18.6-2.25-26.9,0v-8.42c8.9-.2,18-.2,26.9,0Z" style="fill:#f2c937;"/><rect x="105.6" y="21.63" width="26.9" height="6.75" style="fill:#f2c937;"/><rect x="105.6" y="41.82" width="26.9" height="6.75" style="fill:#f2c937;"/><path d="M105.6,62.03v8.42c-.99.27-6.07,3.26-6.72,2.52l-.02-10.45c.13-.9,5.43-.45,6.74-.48Z" style="fill:#fef362;"/><path d="M132.5,62.03c1.31.03,6.61-.42,6.74.48l-.02,10.45c-.65.74-5.73-2.25-6.72-2.52v-8.42Z" style="fill:#e8a10c;"/><rect x="98.85" y="21.62" width="6.74" height="6.75" style="fill:#fef362;"/><rect x="132.49" y="21.63" width="6.75" height="6.74" transform="translate(110.83 160.87) rotate(-89.99)" style="fill:#e8a10c;"/><rect x="98.85" y="41.82" width="6.74" height="6.75" style="fill:#fef362;"/><rect x="132.49" y="41.83" width="6.75" height="6.74" transform="translate(90.64 181.06) rotate(-89.99)" style="fill:#e8a10c;"/><rect x="98.85" y="183.19" width="6.74" height="6.75" style="fill:#fef362;"/><rect x="132.49" y="183.2" width="6.75" height="6.74" transform="translate(-50.73 322.4) rotate(-89.99)" style="fill:#e8a10c;"/><rect x="98.85" y="203.39" width="6.74" height="6.75" style="fill:#fef362;"/><rect x="132.49" y="203.4" width="6.75" height="6.74" transform="translate(-70.93 342.6) rotate(-89.99)" style="fill:#e8a10c;"/><path d="M135.86,87.27c3.77,1.11,4.35,2.67,6.73,5.05-.24,7.46.88,14.67-1.29,21.89-.42,1.38.19,2.99-2.07,2.51.26-8.53-7-7.86-13.46-7.57-.21-2.78.43-5.95-.18-8.66-1.45-6.51-11.66-6.4-13.09,0-.89,3.97-1.08,18.36,2.36,20.84,3.1,2.23,20.1,2.43,23.52-1.24-4.17,16.79-27.99,21.96-42.88,19.35-6.09-16.34-4.34-36.94,11.33-47.14,7.69-5.01,20.13-7.64,29.02-5.03Z" style="fill:#c7c7c7;"/><path d="M95.51,139.45c14.89,2.61,38.7-2.57,42.88-19.35.25-1,.81-2.48.84-3.37,2.26.48,1.65-1.13,2.07-2.51,2.18-7.22,1.05-14.43,1.29-21.89,31.4,31.41-15.5,78.65-47.08,47.12Z" style="fill:#9b9b9b;"/><path d="M135.86,87.27c-8.89-2.61-21.33.02-29.02,5.03-15.67,10.2-17.42,30.8-11.33,47.14-26.52-26.47,2.45-68.56,37.22-54.51,1.28.52,2.58.86,3.13,2.34Z" style="fill:#f7efd0;"/><path d="M138.38,120.09c-3.42,3.67-20.42,3.47-23.52,1.24-3.45-2.48-3.25-16.87-2.36-20.84,1.43-6.4,11.64-6.51,13.09,0,.6,2.71-.04,5.88.18,8.66,6.45-.29,13.72-.96,13.46,7.57-.03.89-.59,2.36-.84,3.37Z" style="fill:#020202;"/></g></svg>