<?xml version="1.0" encoding="UTF-8"?><svg id="a" xmlns="http://www.w3.org/2000/svg" viewBox="0 0 230.86 230.01"><g id="b"><path d="M89.86,229.06c-9.16.08-18.37.04-27.53,0,.51-6.22,2.51-25.05.27-30.01-1.15-2.54-5.85-1.17-6.46,2.06-1.37,7.27.3,20.36.86,27.95-9.36-.06-18.39-.31-27.53-.89.48-11.24-.65-22.99,0-34.18.57-9.74,1.5-17.26,7.96-24.9,8.9-10.52,20.99-11.52,33.33-15.5-.09,2.95-2.53,5.22-2.23,8.33.33,3.35,6.27,10.23,6.07,11.48-.44,2.88-8.32,8.44-5.89,13.27l21.13,42.4Z" style="fill:#675d67;"/><path d="M191.1,229.06c-5.61.1-11.26-.03-16.87,0,.56-7.59,2.23-20.68.86-27.95-.61-3.22-5.31-4.6-6.46-2.06-2.24,4.95-.24,23.78.27,30.01-9.16.04-18.37.08-27.53,0l21.13-42.4c2.62-4.19-6.22-11.66-5.89-13.84.3-1.94,5.89-7.18,6.08-11.26,14.2,2.37,26.97,15.22,28.41,29.76,1.18,11.93-.86,25.61,0,37.74Z" style="fill:#675d67;"/><path d="M95.19,229.06l-.69-6.86-18.79-37.1c0-2.94,5.68-7.45,5.9-11.68.22-4.45-4.73-7.83-5.6-10.95-1.06-3.83,4.53-14.72,10.61-13.4,2.68.58-.25,6.16-.35,7.6-.27,3.99-.57,14.1.22,17.6,1.22,5.45,7.37,5.18,8.53,7.46l10.82,47.35c-3.53.16-7.12-.05-10.66,0Z" style="fill:#8e7f8e;"/><path d="M153.8,158.02c.11.32,1.21.92,1.42,1.72,1.16,4.43-5.86,8.59-5.6,13.68.22,4.4,6.33,8.95,5.81,12.36l-18.7,36.42-.69,6.86c-3.53-.05-7.13.16-10.66,0-.3-5.87,5.66-16.67,3.45-21.64-.35-.78-1.63-1.31-1.68-1.45-.6-1.64,1.44-5.51.89-7.99,8,.81,5.5-12.85,8.44-16.87,1.15-1.57,6.6-1.47,8.04-6.17.91-2.98.77-15.16.4-18.7l8.88,1.78Z" style="fill:#8e7f8e;"/><path d="M201.75,229.06c-3.51.2-7.13-.06-10.66,0-.87-12.13,1.17-25.8,0-37.74-1.44-14.54-14.21-27.39-28.41-29.76.12-2.73-1.9-5.45-2.66-7.98,12.69,3.68,25.99,5.39,34.61,16.44,11.76,15.08,5.51,41,7.13,59.04Z" style="fill:#534c54;"/><path d="M57,229.06c-.56-7.59-2.23-20.68-.86-27.95.61-3.22,5.31-4.6,6.46-2.06,2.24,4.95.24,23.78-.27,30.01-1.78,0-3.55.01-5.33,0Z" style="fill:#050404;"/><path d="M174.22,229.06c-1.78,0-3.55,0-5.33,0-.51-6.22-2.51-25.05-.27-30.01,1.15-2.54,5.85-1.17,6.46,2.06,1.37,7.27-.3,20.36-.86,27.95Z" style="fill:#050404;"/><path d="M127.16,205.97c.05.14,1.33.67,1.68,1.45,2.21,4.97-3.76,15.77-3.45,21.64-4.73-.21-6.55,1.18-6.23-4.85.21-3.93,2.52-18.77,8-18.24Z" style="fill:#050404;"/><path d="M121.83,140.25c-.23,1.83.06,3.36.69,5.08,1.29,3.53,3.89,3.56,4.64,6.47-8.17,3.45-4.27,1.03-11.09.81-2.91-.1-4.41.88-6.96,1.67l-15.69-7.37c-.31-1.34,3.38-3.94,4.32-5.44.82-1.3.86-3.74,1.01-3.87.55-.5,12.09,2.49,14.65,2.65s6.08.3,8.43.01Z" style="fill:#fcccbd;"/><path d="M92.52,156.68c1.01-3.3,11.05,1.8,11.4,2.36s.37,8,.15,9.19c-.46,2.44-11.55,8.58-11.55,3.55,0-3.25-.67-12.91,0-15.1Z" style="fill:#e6818e;"/><path d="M137.81,155.35v17.32c0,2.98-9.61-2.09-10.22-3.1-.65-1.07-.77-9.76-.29-10.53.3-.48,8.98-4.34,10.51-3.69Z" style="fill:#e6818e;"/><path d="M121.83,140.25c1.56-.19,9.85-3.4,10.64-2.66.15.14.18,2.58,1.01,3.87,1.55,2.42,4.85,3.53,4.33,6.78-4.02-.34-7.22,2.1-10.66,3.56-.75-2.9-3.35-2.93-4.64-6.47-.63-1.72-.91-3.25-.69-5.08Z" style="fill:#f9ac9b;"/><circle cx="115.61" cy="164.64" r="5.16" style="fill:#e6818e;"/><path d="M144.92,156.24c-.35-3.25-4.78-7.4,2.1-7.04,5.67.29,5.33,4.58,6.78,8.82l-8.88-1.78Z" style="fill:#675d67;"/><path d="M29.47,228.18c-1.55-.1-4.59,1.94-6.25-.59,1.94-24.45-7.41-51.92,15.21-69.04,12.78-9.68,35.18-11.24,49.91-17.58,10.45-4.49-1.01-8.39-4.99-11.51-14.71-11.53-23.58-28.67-21.95-47.77-15.3.11-19.07-21.63-4.42-26.26,1.36-.43,4.3-.27,4.46-.42,1.18-1.11-.54-27.6,0-32.42,1.06-9.38,10.97-19.22,20.2-20.65,19.95-3.09,46.55,1.8,67.2-.14,27.02,6.25,20.31,32.11,20.95,53.21,18.39.5,18.13,25.82.04,26.68,1.65,19.54-7.21,37.3-22.83,48.66-3.45,2.51-11.3,4.08-6.92,9,22.51,10.75,54.65,8.69,65.4,35.84.49,1.24,2.5,6.58,2.5,7.27v45.74c-2.14.77-4.02.76-6.22.89-1.61-18.04,4.64-43.96-7.13-59.04-8.62-11.05-21.92-12.76-34.61-16.44.76,2.53,2.79,5.25,2.66,7.98-.18,4.08-5.78,9.32-6.08,11.26-.33,2.18,8.51,9.65,5.89,13.84l-21.13,42.4c-1.77-.01-3.55.03-5.33,0l.69-6.86,18.7-36.42c.52-3.41-5.58-7.96-5.81-12.36-.26-5.09,6.76-9.25,5.6-13.68-.21-.8-1.32-1.4-1.42-1.72-1.45-4.24-1.11-8.53-6.78-8.82-6.88-.35-2.45,3.79-2.1,7.04.38,3.54.51,15.72-.4,18.7-1.44,4.7-6.89,4.61-8.04,6.17-2.94,4.02-.44,17.68-8.44,16.87-.2-.93-1.78-1.73-1.82-3.95-.07-3.66,4.92-13.72,2.73-16.03-.37-.39-5.38-2.86-6-2.95-2.33-.32-4.8,1.76-7.76,1.66-2.31-.08-4.44-1.76-6.26-1.73-1.06.02-6.68,2.73-7.15,3.46-1.26,1.99,9.77,39.97,10.28,45.77.35,6.02-1.54,4.65-6.23,4.85l-10.82-47.35c-1.16-2.28-7.3-2.01-8.53-7.46-.79-3.5-.49-13.61-.22-17.6.1-1.44,3.03-7.02.35-7.6-6.08-1.31-11.67,9.57-10.61,13.4.86,3.13,5.82,6.5,5.6,10.95s-5.9,8.74-5.9,11.68l18.79,37.1.69,6.86c-1.77.03-3.55-.01-5.33,0l-21.13-42.4c-2.43-4.83,5.45-10.39,5.89-13.27.19-1.25-5.75-8.12-6.07-11.48-.3-3.11,2.14-5.38,2.23-8.33-12.35,3.99-24.43,4.98-33.33,15.5-6.46,7.63-7.39,15.16-7.96,24.9-.66,11.19.47,22.94,0,34.18ZM94.3,55c-.51-6.01,6.27-5.72,10.64-7.56,10.11-4.26,19.52-9.36,27.96-16.44,3.19-2.68,15.71-14.41,17.39-17.24,1.83-3.09,1.16-4.58-2.22-4.98-20.16-2.37-45.03,1.81-65.7.1-6.33.99-14.71,10.04-14.71,16.38v29.75c5.6.87,14.84-4.34,18.65.89-.1.09.03,1.71-.47,2.6-2.33,4.17-16.76,1.66-18.06,3.74-.1,12.72-1.18,25.3,2.53,37.63,5.39,17.93,22.14,31.75,40.86,33.29,22.83,1.88,44.37-12.17,50.36-34.45,3.31-12.31,1.66-24.88,2.04-37.49-3.01,0-6.89-.16-9.77-.88-9.41-2.37-18.85-9.85-25.44-16.73-6.38,2.59-25.54,14.38-31.63,13-.92-.21-1.84-1.47-2.43-1.6ZM152.02,22.14c-5.18,5.23-10.75,10.4-16.48,15.05l-1.15,2.1c4.58,7.12,11.76,10.45,19.41,13.05,3.04,1.03,6.17,2.74,9.77,2.66v-30.64c0-1.11-3.45-9.01-4.98-9.28-1.63-.29-5.13,5.61-6.57,7.06ZM61.44,62.1c-10.04-.75-8.93,12.7,0,12.43v-12.43ZM169.78,74.53c9.28.22,9.96-13.07,0-12.43v12.43ZM127.16,151.8c3.44-1.45,6.64-3.89,10.66-3.56.51-3.24-2.78-4.35-4.33-6.78-.83-1.3-.87-3.74-1.01-3.87-.8-.74-9.08,2.47-10.64,2.66-2.35.29-5.99.14-8.43-.01-2.56-.16-14.1-3.15-14.65-2.65-.15.14-.19,2.57-1.01,3.87-.95,1.49-4.63,4.09-4.32,5.44l15.69,7.37c2.55-.79,4.05-1.77,6.96-1.67,6.82.23,2.92,2.64,11.09-.81ZM92.52,156.68c-.67,2.18,0,11.85,0,15.1,0,5.03,11.09-1.11,11.55-3.55.22-1.19.19-8.65-.15-9.19s-10.39-5.66-11.4-2.36ZM137.81,155.35c-1.53-.65-10.21,3.22-10.51,3.69-.48.76-.36,9.46.29,10.53.61,1.01,10.22,6.07,10.22,3.1v-17.32ZM120.77,164.64c0-2.85-2.31-5.16-5.16-5.16s-5.16,2.31-5.16,5.16,2.31,5.16,5.16,5.16,5.16-2.31,5.16-5.16Z" style="fill:#050404;"/><path d="M153.8,60.32c.5,23.5,1.68,51.58-21.04,65.54-6.75,4.15-13.95,5.65-21.58,7.28-18.73-1.54-35.48-15.36-40.86-33.29-3.71-12.33-2.62-24.91-2.53-37.63,1.3-2.08,15.73.43,18.06-3.74.5-.89.37-2.51.47-2.6.3-.27,7.14-1.08,7.99-.89.59.13,1.51,1.39,2.43,1.6,6.09,1.38,25.25-10.41,31.63-13,6.58,6.88,16.03,14.36,25.44,16.73ZM94.97,65.88c-6.74-6.82-7.85,12.79-4.55,13.89,7.55,2.52,6.64-11.77,4.55-13.89ZM136.25,65.88c-2.09,2.12-3,16.41,4.55,13.89,3.3-1.1,2.19-20.71-4.55-13.89ZM125.26,105.73c-1.74-1.12-7.04,1.85-10.11,1.75-3.76-.12-10.75-5.31-10.02,1.96.66,6.5,20.97,6.81,20.99-.69,0-.64-.55-2.8-.87-3.01Z" style="fill:#fcccbd;"/><path d="M86.31,55.88c-3.81-5.23-13.05-.02-18.65-.89v-29.75c0-6.34,8.38-15.39,14.71-16.38,20.67,1.72,45.54-2.47,65.7-.1,3.38.4,4.05,1.89,2.22,4.98-1.67,2.83-14.19,14.57-17.39,17.24-8.45,7.08-17.85,12.18-27.96,16.44-4.37,1.84-11.16,1.55-10.64,7.56-.85-.19-7.7.62-7.99.89Z" style="fill:#da8657;"/><path d="M153.8,60.32c2.88.73,6.76.88,9.77.88-.37,12.62,1.27,25.19-2.04,37.49-5.99,22.28-27.54,36.33-50.36,34.45,7.63-1.63,14.83-3.13,21.58-7.28,22.72-13.96,21.55-42.05,21.04-65.54Z" style="fill:#f9ac9b;"/><path d="M152.02,22.14c1.43-1.45,4.93-7.35,6.57-7.06,1.53.27,4.98,8.17,4.98,9.28v30.64c-3.6.08-6.72-1.63-9.77-2.66-.93-9.69,2.05-21.26-1.78-30.2Z" style="fill:#da8657;"/><path d="M153.8,52.33c-7.66-2.6-14.83-5.93-19.41-13.05l1.15-2.1c5.73-4.66,11.31-9.82,16.48-15.05,3.83,8.93.84,20.51,1.78,30.2Z" style="fill:#dd9671;"/><path d="M169.78,74.53v-12.43c9.96-.64,9.28,12.65,0,12.43Z" style="fill:#fcccbd;"/><path d="M61.44,62.1v12.43c-8.93.27-10.04-13.18,0-12.43Z" style="fill:#f9ac9b;"/><path d="M125.26,105.73c.32.2.87,2.37.87,3.01-.02,7.5-20.34,7.19-20.99.69-.73-7.27,6.25-2.08,10.02-1.96,3.07.1,8.36-2.86,10.11-1.75Z" style="fill:#050404;"/><path d="M94.97,65.88c2.09,2.12,3,16.41-4.55,13.89-3.3-1.1-2.19-20.71,4.55-13.89Z" style="fill:#050404;"/><path d="M136.25,65.88c6.74-6.82,7.85,12.79,4.55,13.89-7.55,2.52-6.64-11.77-4.55-13.89Z" style="fill:#050404;"/></g></svg>