<?xml version="1.0" encoding="UTF-8"?><svg id="a" xmlns="http://www.w3.org/2000/svg" viewBox="0 0 230.86 230.01"><g id="b"><path d="M185.73,29.62l2.53,5.91-140.17-.04-7.84,1c-.74,1.39-.89,2.92-1,4.48-.69,9.35-1.17,30.9,0,39.73.3,2.26.88,3.51,3.41,3.76-.23.24-.18,6.47,0,6.75-3.1.16-3.2,3.18-3.41,5.44-.82,9.13-1,29.94.02,38.87.18,1.57.58,3.92,2.26,4.49l146.73.14-2.53,5.91c-47.83-.34-95.7.22-143.54.04-4.86.08-8.55-4.21-8.8-8.9,2.27-31.37-3.03-67.06-.04-97.92.53-5.45,3.22-8.86,8.86-9.68,47.3,1.88,96.45-2.45,143.52.02Z" style="fill:#56687c;"/><path d="M185.73,146.06l2.53-5.91c3.69.35,3.98-2.48,4.25-5.44,2.66-29.79-2.08-63.5-.03-93.71.03-3.15-1.7-4.24-4.22-5.47l-2.53-5.91c7.25.38,11.85,1.16,12.67,9.66l-.09,99.56c-1.18,4.62-5.77,8.11-10.55,8.1-1.18,0-1.92-.88-2.03-.88Z" style="fill:#38495c;"/><path d="M176.48,42.28v91.13c-43.46.63-87-.47-130.46,0-1.1-6.58,1.8-37.55-.77-41.02-.73-.99-2.51-1.05-2.59-1.17-.18-.28-.23-6.51,0-6.75.21-.22,3.63.35,3.38-2.1l-.02-40.09c43.46.48,87.01-.62,130.46,0Z" style="fill:#54a4fe;"/><path d="M188.26,35.53c2.52,1.23,4.25,2.32,4.22,5.47-2.05,30.21,2.68,63.92.03,93.71-.26,2.97-.56,5.8-4.25,5.44l-146.73-.14c-1.68-.56-2.08-2.92-2.26-4.49-1.03-8.93-.85-29.73-.02-38.87.2-2.27.3-5.28,3.41-5.44.08.12,1.86.18,2.59,1.17,2.57,3.47-.33,34.44.77,41.02,43.46-.48,87.01.62,130.46,0,3.08-.04,6.18.03,9.26,0V42.28c-3.08-.03-6.18.04-9.26,0-43.46-.63-87,.47-130.46,0l.02,40.09c.25,2.45-3.17,1.89-3.38,2.1-2.53-.24-3.11-1.5-3.41-3.76-1.17-8.83-.69-30.39,0-39.73.12-1.56.26-3.09,1-4.48l7.84-1,140.17.04Z" style="fill:#030508;"/><path d="M176.48,42.28c3.08.04,6.18-.03,9.26,0v91.13c-3.08.03-6.18-.04-9.26,0V42.28Z" style="fill:#1e89fe;"/><path d="M38.21,23.91l153.03-.24c6.41.45,12.43,6.68,13.05,13.08,3.1,32.23-2.43,69.41,0,102.17,1.03,2.72-3.59,7.66-3.3,9.14.26,1.29,2.72,2.05,3.61,3.14,3.53,4.32,16.99,34.72,18.44,40.57,1.8,7.27-2.58,13.83-9.06,16.76-63.82,1.89-128.01.23-191.97.84-7.61-.02-15.08-8.76-13.68-16.27,6.6-11.4,10.71-31.48,18.46-41.43,1.03-1.32,3.75-2.44,3.98-3.61.1-.48-3.01-6.04-3.3-9.14-3.07-32.57,2.38-69.91.01-102.99.64-5.32,5.95-10.27,10.73-12.02ZM185.73,146.06c.11,0,.85.88,2.03.88,4.78,0,9.37-3.49,10.55-8.1l.09-99.56c-.82-8.5-5.42-9.28-12.67-9.66-47.08-2.46-96.22,1.86-143.52-.02-5.64.82-8.33,4.23-8.86,9.68-2.98,30.86,2.32,66.54.04,97.92.25,4.69,3.93,8.98,8.8,8.9,47.84.18,95.71-.38,143.54-.04ZM189.1,152.81c-50.48-1.71-101.99,1.12-152.57.19l-3.95,1.95c-6.84,10.88-11.25,23.81-16.02,35.82,62.82-.54,125.72.74,188.53,0,3.36-.04,6.74.03,10.1,0,.61-.58-1.69-5.6-2.13-6.72-2.53-6.42-8.34-22.03-11.81-26.97-3.66-5.21-6.64-4.09-12.15-4.28ZM90.63,196.69H14.87c-.47,1.74,5.39,6.75,6.31,6.75h69.44v-6.75ZM135.23,203.44c-.18-1.95.86-5.9-1.38-6.63-10.79.77-23.95-1.43-34.43-.16-4.31.52-2.69,3.23-2.91,6.79h38.72ZM205.93,197.53c-21.52.86-43.27-.64-64.81,0v5.92c20.7-.64,41.61.85,62.29,0,4.48-.18,7.86.72,11.49-2.83,1.11-1.09,3.28-3.58.73-3.92-3.72-.5-6.99.74-9.69.85Z" style="fill:#010101;"/><path d="M189.1,152.81l2.53,6.75-155.14-.03c-1.26,3.46-9.28,15.97-4.77,18.17l168.33.42,5.05,12.66c-62.81.74-125.71-.55-188.53,0,4.78-12.01,9.18-24.94,16.02-35.82l3.95-1.95c50.58.93,102.1-1.91,152.57-.19Z" style="fill:#bfc7d1;"/><path d="M90.63,196.69v6.75H21.19c-.92,0-6.78-5.01-6.31-6.75h75.75Z" style="fill:#56687c;"/><path d="M205.93,197.53l-2.53,5.91c-20.68.85-41.59-.64-62.29,0v-5.92c21.54-.63,43.29.86,64.81,0Z" style="fill:#56687c;"/><path d="M189.1,152.81c5.51.19,8.49-.94,12.15,4.28,3.47,4.95,9.28,20.55,11.81,26.97.44,1.12,2.74,6.13,2.13,6.72-3.35.04-6.74-.04-10.1,0l-5.05-12.66c3.65-1.32-1.25-10.92-2.38-13.22-1.46-2.98-1.95-6.13-6.04-5.34l-2.53-6.75Z" style="fill:#8f97a2;"/><path d="M135.23,203.44h-38.72c.21-3.56-1.4-6.27,2.91-6.79,10.49-1.27,23.65.93,34.43.16,2.24.73,1.2,4.69,1.38,6.63Z" style="fill:#8f97a2;"/><path d="M205.93,197.53c2.7-.11,5.98-1.34,9.69-.85,2.55.34.39,2.84-.73,3.92-3.63,3.55-7.01,2.64-11.49,2.83l2.53-5.91Z" style="fill:#38495c;"/><path d="M191.63,159.56c4.09-.79,4.57,2.36,6.04,5.34,1.13,2.31,6.03,11.91,2.38,13.22l-168.33-.42c-4.51-2.2,3.52-14.72,4.77-18.17l155.14.03ZM193.31,171.37c-.47-2.43-1.68-6.15-4.58-5.95H43.02c-2.9-.19-4.11,3.52-4.58,5.95h154.87Z" style="fill:#030304;"/><path d="M193.31,171.37H38.44c.47-2.43,1.68-6.15,4.58-5.95h145.71c2.9-.19,4.11,3.52,4.58,5.95Z" style="fill:#56687c;"/></g></svg>