<?xml version="1.0" encoding="UTF-8"?><svg id="a" xmlns="http://www.w3.org/2000/svg" viewBox="0 0 230.86 230.01"><g id="b"><path d="M186.49,29.68v43.03H45.1V29.68c7.31.37,5.14,14.21,11.18,12.54,2.79-.77,2.54-7.65,3.57-10.83,3.16-9.77,11.82-15.34,21.82-16.09,18.32-1.37,50.9-1.57,69.08,0,9.78.85,18.35,7.2,21.2,16.72.99,3.32.32,10.01,4.07,10.35,5.16.46,3.38-12.24,10.48-12.69Z" style="fill:#646c77;"/><path d="M181.44,79.46l-5.42,5.95c-39.06,1.88-78.65.22-117.91.84-3.27-.44-5.87-4.33-7.95-6.79h131.29Z" style="fill:#535b65;"/><rect x="58.57" y="92.96" width="114.46" height="3.38" style="fill:#656d78;"/><path d="M167.97,126.71l-2.54,2.94c-32.97.73-66.33.73-99.28,0l-2.54-2.94h104.36Z" style="fill:#535b65;"/><rect x="58.57" y="103.08" width="3.37" height="16.88" style="fill:#646c77;"/><rect x="68.66" y="103.08" width="3.37" height="16.88" style="fill:#646c77;"/><rect x="78.76" y="103.08" width="3.37" height="16.88" style="fill:#646c77;"/><rect x="88.86" y="103.08" width="3.37" height="16.88" style="fill:#646c77;"/><rect x="98.96" y="103.08" width="3.37" height="16.88" style="fill:#646c77;"/><rect x="109.06" y="103.08" width="3.37" height="16.88" style="fill:#646c77;"/><rect x="119.16" y="103.08" width="3.37" height="16.88" style="fill:#646c77;"/><rect x="129.26" y="103.08" width="3.37" height="16.88" style="fill:#646c77;"/><rect x="139.36" y="103.08" width="3.37" height="16.88" style="fill:#646c77;"/><rect x="149.46" y="103.08" width="3.37" height="16.88" style="fill:#646c77;"/><rect x="159.56" y="103.08" width="3.37" height="16.88" style="fill:#646c77;"/><rect x="169.66" y="103.08" width="3.37" height="16.88" style="fill:#646c77;"/><path d="M177.25,27.14c2.65-2.74,14.14-8.49,15.81-2.78l.15,52.12c-3.26,5.51-9.4,9.3-13.27,14.54l-.34,33.4c-1.7,3.31-9.3,7.98-9.91,11.16l-.06,52.25c-.76,4.69-8.74,12.74-9.85,17.13-1.89,7.49,2.92,17.91-9.89,19.62-21.65-1.53-46.04,2.04-67.36.03-13.9-1.31-8.67-11.66-10.69-19.65-1.06-4.18-8.19-11.69-9.72-16.41l-.19-52.96c-.61-3.18-8.2-7.85-9.91-11.16l-.34-33.4c-3.87-5.24-10.01-9.02-13.27-14.54l.4-52.72c4.59-4.47,11.36.37,15.56,3.38,4-9.97,13.54-16.89,24.09-18.47,23.61,1.38,49.86-2.14,73.16-.12,11.26.98,21.4,8.15,25.65,18.59ZM186.49,29.68c-7.1.45-5.31,13.16-10.48,12.69-3.74-.34-3.07-7.02-4.07-10.35-2.84-9.52-11.42-15.87-21.2-16.72-18.17-1.57-50.76-1.38-69.08,0-10,.75-18.67,6.32-21.82,16.09-1.03,3.18-.78,10.06-3.57,10.83-6.05,1.67-3.87-12.17-11.18-12.54v43.03h141.39V29.68ZM181.44,79.46H50.15c2.08,2.46,4.68,6.36,7.95,6.79,39.26-.62,78.85,1.04,117.91-.84l5.42-5.95ZM173.02,92.96H58.57v3.38h114.46v-3.38ZM61.93,103.08h-3.37v16.88h3.37v-16.88ZM72.03,103.08h-3.37v16.88h3.37v-16.88ZM82.13,103.08h-3.37v16.88h3.37v-16.88ZM92.23,103.08h-3.37v16.88h3.37v-16.88ZM102.33,103.08h-3.37v16.88h3.37v-16.88ZM112.43,103.08h-3.37v16.88h3.37v-16.88ZM122.53,103.08h-3.37v16.88h3.37v-16.88ZM132.63,103.08h-3.37v16.88h3.37v-16.88ZM142.72,103.08h-3.37v16.88h3.37v-16.88ZM152.82,103.08h-3.37v16.88h3.37v-16.88ZM162.92,103.08h-3.37v16.88h3.37v-16.88ZM173.02,103.08h-3.37v16.88h3.37v-16.88ZM167.97,126.71H63.62l2.54,2.94c32.95.73,66.31.73,99.28,0l2.54-2.94ZM162.92,136.83h-94.26v23.62h94.26v-23.62ZM72.04,167.2h-3.38s0,10.14,0,10.14h3.38s0-10.14,0-10.14ZM82.14,167.2h-3.38s0,10.14,0,10.14h3.38s0-10.14,0-10.14ZM92.23,167.2h-3.38s0,10.14,0,10.14h3.38s0-10.14,0-10.14ZM102.33,167.2h-3.38s0,10.14,0,10.14h3.38s0-10.14,0-10.14ZM112.43,167.2h-3.38s0,10.14,0,10.14h3.38s0-10.14,0-10.14ZM122.53,167.2h-3.38s0,10.14,0,10.14h3.38s0-10.14,0-10.14ZM132.63,167.2h-3.38s0,10.14,0,10.14h3.38s0-10.14,0-10.14ZM142.73,167.2h-3.38s0,10.14,0,10.14h3.38s0-10.14,0-10.14ZM152.83,167.2h-3.38s0,10.14,0,10.14h3.38s0-10.14,0-10.14ZM162.93,167.2h-3.38s0,10.14,0,10.14h3.38s0-10.14,0-10.14ZM162.92,184.08h-94.26c-.67,2.45,8.01,16.42,8.97,16.74l74.82.18c1.05.07,1.71-.18,2.49-.88.55-.49,7.18-11.79,7.51-12.72.41-1.14.66-2.1.47-3.33ZM82.13,207.7c-.12-.12-3.24-.12-3.36,0-.43.41-.64,9.04,2.11,10.12,1.74.68,1.18-1.13,1.25-2.09.09-1.28.29-7.76,0-8.03ZM92.23,207.7h-3.38s0,10.14,0,10.14h3.38s0-10.14,0-10.14ZM102.33,207.7h-3.38s0,10.14,0,10.14h3.38s0-10.14,0-10.14ZM112.43,207.7h-3.38s0,10.14,0,10.14h3.38s0-10.14,0-10.14ZM122.53,207.7h-3.38s0,10.14,0,10.14h3.38s0-10.14,0-10.14ZM132.63,207.7h-3.38s0,10.14,0,10.14h3.38s0-10.14,0-10.14ZM142.73,207.7h-3.38s0,10.14,0,10.14h3.38s0-10.14,0-10.14ZM152.82,207.7c-.12-.12-3.24-.12-3.36,0-.37.35.26,8.53,0,10.12,4.28,1.01,3.78-9.72,3.36-10.12Z" style="fill:#000101;"/><path d="M162.92,184.08c.19,1.22-.06,2.18-.47,3.33-.33.93-6.97,12.22-7.51,12.72-.78.7-1.43.96-2.49.88l-74.82-.18c-.96-.32-9.64-14.29-8.97-16.74h94.26Z" style="fill:#535b65;"/><rect x="68.66" y="167.2" width="3.38" height="10.14" style="fill:#646c77;"/><rect x="78.75" y="167.2" width="3.38" height="10.14" style="fill:#656d78;"/><rect x="88.85" y="167.2" width="3.38" height="10.14" style="fill:#656d78;"/><rect x="98.95" y="167.2" width="3.38" height="10.14" style="fill:#656d78;"/><rect x="109.05" y="167.2" width="3.38" height="10.14" style="fill:#656d78;"/><rect x="119.15" y="167.2" width="3.38" height="10.14" style="fill:#656d78;"/><rect x="129.25" y="167.2" width="3.38" height="10.14" style="fill:#656d78;"/><rect x="139.35" y="167.2" width="3.38" height="10.14" style="fill:#656d78;"/><rect x="149.45" y="167.2" width="3.38" height="10.14" style="fill:#656d78;"/><rect x="159.55" y="167.2" width="3.38" height="10.14" style="fill:#646c77;"/><rect x="88.85" y="207.7" width="3.38" height="10.14" style="fill:#434a54;"/><rect x="98.95" y="207.7" width="3.38" height="10.14" style="fill:#434a54;"/><rect x="109.05" y="207.7" width="3.38" height="10.14" style="fill:#434a54;"/><rect x="119.15" y="207.7" width="3.38" height="10.14" style="fill:#434a54;"/><rect x="129.25" y="207.7" width="3.38" height="10.14" style="fill:#434a54;"/><rect x="139.35" y="207.7" width="3.38" height="10.14" style="fill:#434a54;"/><path d="M82.13,207.7c.29.28.1,6.76,0,8.03-.07.95.49,2.77-1.25,2.09-2.75-1.08-2.55-9.71-2.11-10.12.12-.12,3.24-.12,3.36,0Z" style="fill:#434a54;"/><path d="M152.82,207.7c.43.41.92,11.14-3.36,10.12.25-1.59-.37-9.78,0-10.12.12-.12,3.24-.12,3.36,0Z" style="fill:#434a54;"/><path d="M162.92,136.83v23.62h-94.26v-23.62h94.26ZM97.87,140.38c-3.48,1.03-3.46,15.51,0,16.54,10.62-.75,24.11,1.58,34.37.21,1.64-.22,3.04-.49,3.58-2.32.75-2.55,1.05-13.49-2.1-14.43h-35.85Z" style="fill:#646c77;"/><path d="M97.87,140.38h35.85c3.15.93,2.85,11.87,2.1,14.43-.54,1.82-1.94,2.1-3.58,2.32-10.27,1.37-23.75-.95-34.37-.21-3.46-1.02-3.48-15.51,0-16.54ZM114.11,146.96h-11.78c-.17,0-.12,3.25,0,3.37.47.49,12.29,1.09,11.79-3.37ZM129.26,146.96c-.41-.43-10,.31-11.78,0-.5,4.46,11.32,3.87,11.79,3.37.12-.12.11-3.25,0-3.37Z" style="fill:#010101;"/><path d="M114.11,146.96c.5,4.46-11.32,3.87-11.79,3.37-.12-.12-.16-3.37,0-3.37h11.78Z" style="fill:#5c9bea;"/><path d="M129.26,146.96c.12.12.12,3.25,0,3.37-.47.49-12.29,1.09-11.79-3.37,1.78.31,11.37-.43,11.78,0Z" style="fill:#5c9bea;"/></g></svg>