<?xml version="1.0" encoding="UTF-8"?><svg id="a" xmlns="http://www.w3.org/2000/svg" viewBox="0 0 230.86 230.01"><g id="b"><path d="M52.29,100.21v-27c-3.1-.51-11.55,1.41-13.05-1.68-.87-1.8-.74-25.96-.02-28.72.55-2.1,2.33-3.95,3.79-5.48,5.67-5.89,17.54-16.51,24.02-21.48,2.94-2.25,4.62-3.08,8.36-3.43,34.34-3.24,73.72,2.49,108.59.03,4.07.1,8.38,3.63,9.32,7.53l.39,191.2c.03,5.82-4.73,10.58-10.52,10.55H49.31c-6.34-.23-9.99-4.37-10.52-10.55-2.91-34.25,2.27-72.55,0-107.23.49-6.23,9.02-3.02,13.5-3.76ZM79.21,46.23h10.13s0-27.03,0-27.03h-10.13s0,27.03,0,27.03ZM96.04,46.23h10.13s0-27.03,0-27.03h-10.13s0,27.03,0,27.03ZM112.87,46.23h10.13s0-27.03,0-27.03h-10.13s0,27.03,0,27.03ZM129.7,46.23h10.13s0-27.03,0-27.03h-10.13s0,27.03,0,27.03ZM146.53,46.23h10.13s0-27.03,0-27.03h-10.13s0,27.03,0,27.03ZM163.36,46.23h10.13s0-27.03,0-27.03h-10.13s0,27.03,0,27.03ZM186.94,187.12c.18-26.7-.13-53.45,0-80.16h-14.73c-1.07,0-2-2.64-2.15-3.75-.46-3.4-.27-33.46.48-35.04.19-.4,1.52-1.7,1.67-1.7h14.73V21.32c0-1.79-5.13-2.6-6.73-2.11v31.64c0,.15-1.3,1.49-1.7,1.67H57.35c-.4-.19-1.7-1.53-1.7-1.67v-14.77c-1.76.39-10.1,8.18-10.1,8.86v21.52c3.72.68,12.49-2.12,13.44,2.98v34.55c-.61,3.2-2.58,2.76-5.03,2.98-2.74.24-5.65-.17-8.42,0v105.89c0,.15,1.3,1.49,1.7,1.67l136.72.41c1.73-.24,2.62-1.25,2.95-2.95,1.11-5.84-.02-18.16.02-24.87ZM66.6,25.96c-.85.88-2.75,1.73-3.41,2.91-2.11,3.72-.09,12.74-.8,17.35h10.11c-.03-4.49.02-9.01,0-13.5-.02-3.93.02-7.88,0-11.81-2.89.8-4.1,3.22-5.88,5.06ZM176.84,73.21v27h10.1v-27h-10.1Z"/><path d="M53.97,106.96c2.44-.21,4.42.22,5.03-2.98v-34.55c-.95-5.09-9.73-2.3-13.44-2.98v-21.52c0-.68,8.34-8.47,10.1-8.86v14.77c0,.15,1.3,1.49,1.7,1.67h121.16c.4-.19,1.7-1.53,1.7-1.67v-31.64c1.6-.49,6.73.32,6.73,2.11v45.14h-14.73c-.15,0-1.48,1.3-1.67,1.7-.74,1.59-.93,31.64-.48,35.04.15,1.11,1.08,3.75,2.15,3.75h14.73c-.13,26.7.18,53.45,0,80.16h-6.69s0-26.2,0-26.2h-84.2c.11-1.87-1.27-2.14-2.42-3.01-17.09-12.97-32.43-30.41-39.66-50.94Z" style="fill:#434444;"/><path d="M53.97,106.96c7.23,20.54,22.57,37.97,39.66,50.94,1.15.87,2.53,1.14,2.42,3h-43.81s0,47.34,0,47.34h128.01s0-21.13,0-21.13h6.69c-.04,6.71,1.08,19.03-.02,24.87-.32,1.7-1.22,2.71-2.95,2.95l-136.72-.41c-.4-.19-1.7-1.53-1.7-1.67v-105.89c2.76-.17,5.67.24,8.42,0Z" style="fill:#393a3a;"/><rect x="176.84" y="73.21" width="10.1" height="27" style="fill:#222;"/><rect x="96.04" y="19.2" width="10.13" height="21.11" style="fill:#feb744;"/><rect x="112.87" y="19.2" width="10.13" height="21.11" style="fill:#feb744;"/><rect x="129.7" y="19.2" width="10.13" height="21.11" style="fill:#feb744;"/><rect x="146.53" y="19.2" width="10.13" height="21.11" style="fill:#feb744;"/><rect x="163.36" y="19.2" width="10.13" height="21.11" style="fill:#feb744;"/><path d="M79.21,38.62v-19.42s10.13,0,10.13,0v21.11c-3.63.51-6.75-.7-10.13-1.69Z" style="fill:#feb744;"/><path d="M66.6,25.96c2.86,1.36,2.78,6.85,5.89,6.75.03,4.49-.02,9.01,0,13.5h-10.11c.71-4.61-1.31-13.63.8-17.35.67-1.18,2.56-2.02,3.41-2.91Z" style="fill:#ef9f3c;"/><path d="M89.33,40.3v5.92s-10.13,0-10.13,0v-7.61c3.38.99,6.5,2.19,10.13,1.69Z" style="fill:#ef9f3c;"/><rect x="96.04" y="40.3" width="10.13" height="5.92" style="fill:#ef9f3c;"/><rect x="112.87" y="40.3" width="10.13" height="5.92" style="fill:#ef9f3c;"/><rect x="129.7" y="40.3" width="10.13" height="5.92" style="fill:#ef9f3c;"/><rect x="146.53" y="40.3" width="10.13" height="5.92" style="fill:#ef9f3c;"/><rect x="163.36" y="40.3" width="10.13" height="5.92" style="fill:#ef9f3c;"/><path d="M72.49,32.71c-3.11.1-3.03-5.39-5.89-6.75,1.78-1.85,2.99-4.27,5.88-5.06.03,3.93-.01,7.88,0,11.81Z" style="fill:#feb744;"/><path d="M180.26,160.91v47.35s-128.02-.01-128.02-.01v-47.35s128.02.01,128.02.01ZM59.02,167.7v33.76h114.47v-33.76H59.02Z"/><path d="M111.2,167.7c-.2,2.19,4.49,3.63,6.16,4.38,17.38,7.77,37.11,12.76,56.13,14.2v15.19H59.02v-33.75h0s52.18-.01,52.18-.01Z" style="fill:#d8d4c9;"/><path d="M111.2,167.7h62.29v18.58c-19.01-1.43-38.74-6.43-56.13-14.2-1.67-.75-6.36-2.19-6.16-4.38Z" style="fill:#e7e3d7;"/></g></svg>