<?xml version="1.0" encoding="UTF-8"?><svg id="a" xmlns="http://www.w3.org/2000/svg" viewBox="0 0 234.4 235.86"><g id="b"><path d="M24.1,206.71c8.48-.07,16.99.12,25.46-.09,1.29-11.58,4.54-22.18,11.15-31.79,24.34-35.44,77.62-35.45,101.97,0,6.61,9.62,9.86,20.22,11.15,31.79,8.47.21,16.98.02,25.46.09,3.24.02,14.33-.6,16.41.32,3.21,1.42,2.16,7.02-1.48,7.03l-206.54-.35c-2.53-1.33-2.57-5.54,0-6.68,2.09-.92,13.17-.29,16.41-.32ZM165.83,206.71c-1.4-33.74-33.65-57.07-66.43-49.79-22.77,5.06-41.45,26.11-41.85,49.79h108.28Z" style="fill:#030301;"/><rect x="24.11" y="224.97" width="175.17" height="7.37"/><path d="M108.05,122.62c0,3.92-1.72,14.97,3.91,14.61,4.98-.31,3.38-10.78,3.39-14.61,8.94.43,17.61,2.44,26.16,4.88-.89,2.27-3.38,8.7-.61,10.05,4.63,2.27,6.5-3.12,7.91-6.4,8.52,2.92,15.02,9.37,22.51,14.02-1.22,1.2-8.52,8.53-8.81,9.15-1.6,3.48,1.67,6.76,5.15,5.16.62-.29,7.94-7.6,9.13-8.82,4.63,7.5,11.07,14.01,13.99,22.55-3.27,1.42-8.65,3.28-6.39,7.93,1.35,2.77,7.77.27,10.04-.61,2.43,8.57,4.44,17.25,4.87,26.2-8.48-.07-16.99.12-25.46-.09-1.29-11.58-4.54-22.18-11.15-31.79-24.36-35.45-77.63-35.44-101.97,0-6.61,9.62-9.86,20.22-11.15,31.79-8.47.21-16.98.02-25.46.09.43-8.95,2.44-17.64,4.87-26.2,2.27.89,8.69,3.38,10.04.61,2.27-4.64-3.12-6.51-6.39-7.93,2.87-8.57,9.45-14.98,13.99-22.55,1.19,1.22,8.52,8.55,9.14,8.83,3.23,1.5,6.66-1.92,5.15-5.16-.29-.62-7.6-7.96-8.82-9.15,7.49-4.64,13.99-11.09,22.51-14.02,1.42,3.27,3.28,8.67,7.91,6.4,2.76-1.35.27-7.78-.61-10.05,8.55-2.43,17.22-4.45,26.16-4.88Z" style="fill:#fcf1b0;"/><path d="M176.78,150.65c-1.19,1.22-8.51,8.54-9.13,8.82-3.48,1.6-6.75-1.68-5.15-5.16.29-.62,7.59-7.95,8.81-9.15,1.5-1.47,7.48-7.57,8.69-8.08,2.91-1.25,6.09,1.95,4.85,4.86-.51,1.21-6.6,7.21-8.07,8.7Z" style="fill:#060606;"/><path d="M52.08,145.16c1.22,1.2,8.53,8.53,8.82,9.15,1.5,3.25-1.92,6.66-5.15,5.16-.62-.29-7.95-7.61-9.14-8.83-1.47-1.5-7.55-7.49-8.07-8.7-1.24-2.92,1.94-6.1,4.85-4.86,1.21.52,7.2,6.61,8.69,8.08Z" style="fill:#080807;"/><path d="M115.34,122.62c0,3.83,1.59,14.3-3.39,14.61-5.63.35-3.9-10.7-3.91-14.61,0-3.13-.91-12.61,1.48-14.05,7.61-4.59,5.83,10.15,5.82,14.05Z" style="fill:#030301;"/><path d="M81.89,127.49c.89,2.27,3.37,8.7.61,10.05-4.64,2.27-6.49-3.12-7.91-6.4s-4.33-8.63.18-10.52c3.76-1.57,6.02,4.03,7.12,6.86Z" style="fill:#080807;"/><path d="M32.61,173.2c3.27,1.42,8.65,3.28,6.39,7.93-1.35,2.77-7.77.27-10.04-.61-2.76-1.08-8.32-3.41-6.86-7.13,1.79-4.54,7.15-1.65,10.51-.19Z" style="fill:#080807;"/><path d="M194.43,180.51c-2.27.89-8.69,3.38-10.04.61-2.27-4.64,3.12-6.51,6.39-7.93s8.72-4.36,10.51.19c1.47,3.72-4.1,6.04-6.86,7.13Z" style="fill:#080807;"/><path d="M148.8,131.15c-1.42,3.27-3.28,8.67-7.91,6.4-2.76-1.35-.27-7.78.61-10.05,1.06-2.72,3.42-8.37,7.12-6.88,4.41,1.79,1.57,7.32.18,10.53Z" style="fill:#080807;"/><path d="M165.83,206.71H57.56c.4-23.68,19.08-44.73,41.85-49.79,32.78-7.28,65.03,16.04,66.43,49.79Z" style="fill:#fde41e;"/><path d="M228.62,51.32c0,27.33-22.12,49.49-49.41,49.49s-49.41-22.16-49.41-49.49S151.93,1.83,179.22,1.83s49.41,22.16,49.41,49.49ZM155.49,85.45c1.53,1.86,4.25,3.2,6.47,4.18,32.51,14.35,66.65-14.88,57.7-49.27-.97-3.73-3.44-10.38-6.38-12.8-16.33-25.58-55.1-23.68-70.21,2.49-10.85,18.78-6.06,43.76,12.42,55.4Z" style="fill:#060606;"/><path d="M213.28,27.56c2.94,2.42,5.41,9.07,6.38,12.8,8.95,34.38-25.19,63.62-57.7,49.27-2.23-.98-4.95-2.32-6.47-4.18-8.21-10-11.18-19-10.34-31.69,7.89,4.8,9.53-8.35.61-5.48.74-3.22.99-7.43,3.65-9.75,2.01,2.72,7.75-.03,6.59-3.83-.07-.24-2.16-2.81-2.33-2.87.88-2.36,3.69-5.19,6.08-6.09.06.17,2.62,2.26,2.87,2.33,3.79,1.16,6.54-4.59,3.82-6.6,2.31-2.66,6.52-2.92,9.73-3.66-2.86,8.94,10.26,7.3,5.47-.61,12.67-.84,21.65,2.14,31.63,10.36ZM198.49,24.34c0-2.08-1.68-3.77-3.76-3.77s-3.76,1.69-3.76,3.77,1.68,3.77,3.76,3.77,3.76-1.69,3.76-3.77ZM178.45,29.48c-1.66.3-2.6,1.7-2.85,3.29-.47,2.98-.48,16.5.1,19.32.21,1.04,7.29,13.01,8.12,13.8,1.72,1.63,4.28,1.8,5.67-.32,2.57-3.93-5.65-11.23-6.49-15.31-1.05-5.11,1.05-13.97-.41-18.48-.56-1.74-2.39-2.63-4.15-2.31ZM209.91,35.78c0-2.08-1.68-3.77-3.76-3.77s-3.76,1.69-3.76,3.77,1.68,3.77,3.76,3.77,3.76-1.69,3.76-3.77ZM213.87,51.32c0-2.01-1.62-3.64-3.63-3.64s-3.63,1.63-3.63,3.64,1.62,3.64,3.63,3.64,3.63-1.63,3.63-3.64ZM156.05,66.85c0-2.08-1.69-3.77-3.76-3.77s-3.76,1.69-3.76,3.77,1.69,3.77,3.76,3.77,3.76-1.69,3.76-3.77ZM209.91,66.86c0-2.08-1.68-3.77-3.76-3.77s-3.76,1.69-3.76,3.77,1.68,3.77,3.76,3.77,3.76-1.69,3.76-3.77ZM167.47,78.3c0-2.08-1.68-3.77-3.76-3.77s-3.76,1.69-3.76,3.77,1.68,3.77,3.76,3.77,3.76-1.69,3.76-3.77ZM198.49,78.3c0-2.08-1.68-3.77-3.76-3.77s-3.76,1.69-3.76,3.77,1.68,3.77,3.76,3.77,3.76-1.69,3.76-3.77ZM182.85,82.4c0-2.01-1.62-3.64-3.63-3.64s-3.63,1.63-3.63,3.64,1.62,3.64,3.63,3.64,3.63-1.63,3.63-3.64Z" style="fill:#fbfbfb;"/><path d="M213.28,27.56c-9.98-8.22-18.96-11.2-31.63-10.36-2.79.18-2.25-.13-5.47.61s-7.42.99-9.73,3.66c-2.97-2.2-7.87,1.08-6.69,4.27-2.39.91-5.21,3.74-6.08,6.09-3.18-1.18-6.45,3.73-4.26,6.7-2.66,2.32-2.91,6.53-3.65,9.75s-.42,2.69-.61,5.48c-.83,12.69,2.14,21.69,10.34,31.69-18.48-11.64-23.27-36.62-12.42-55.4,15.11-26.17,53.88-28.07,70.21-2.49Z" style="fill:#e3dfdb;"/><path d="M178.45,29.48c1.75-.32,3.58.57,4.15,2.31,1.46,4.51-.65,13.37.41,18.48.84,4.08,9.05,11.37,6.49,15.31-1.39,2.13-3.95,1.95-5.67.32-.83-.79-7.91-12.77-8.12-13.8-.58-2.82-.57-16.35-.1-19.32.25-1.59,1.18-2.99,2.85-3.29Z" style="fill:#030301;"/><ellipse cx="194.73" cy="24.34" rx="3.76" ry="3.77" style="fill:#0b0b0b;"/><ellipse cx="206.15" cy="35.78" rx="3.76" ry="3.77" style="fill:#0b0b0b;"/><ellipse cx="152.28" cy="66.85" rx="3.76" ry="3.77" style="fill:#0b0b0b;"/><ellipse cx="206.15" cy="66.86" rx="3.76" ry="3.77" style="fill:#0b0b0b;"/><ellipse cx="163.7" cy="78.3" rx="3.76" ry="3.77" style="fill:#0b0b0b;"/><ellipse cx="194.73" cy="78.3" rx="3.76" ry="3.77" style="fill:#0b0b0b;"/><path d="M166.44,21.46c2.72,2.01-.03,7.76-3.82,6.6-.24-.07-2.8-2.16-2.87-2.33-1.18-3.18,3.72-6.47,6.69-4.27Z" style="fill:#0b0b0b;"/><path d="M153.67,31.82c.17.06,2.26,2.63,2.33,2.87,1.16,3.8-4.58,6.55-6.59,3.83-2.2-2.98,1.08-7.89,4.26-6.7Z" style="fill:#0b0b0b;"/><path d="M181.65,17.2c4.79,7.91-8.33,9.55-5.47.61,3.22-.74,2.69-.43,5.47-.61Z" style="fill:#0b0b0b;"/><path d="M145.15,53.76c.18-2.79-.13-2.26.61-5.48,8.92-2.86,7.28,10.28-.61,5.48Z" style="fill:#0b0b0b;"/><ellipse cx="210.24" cy="51.32" rx="3.63" ry="3.64" style="fill:#0b0b0b;"/><ellipse cx="179.22" cy="82.4" rx="3.63" ry="3.64" style="fill:#0b0b0b;"/></g></svg>