<?xml version="1.0" encoding="UTF-8"?><svg id="a" xmlns="http://www.w3.org/2000/svg" viewBox="0 0 234.4 235.86"><g id="b"><path d="M187.28,47.01h8.82c2.51,0,4.77,6.24.47,7.17-2.01.44-13.04.51-15.06.12-3.31-.63-3.91-4.57-3.02-7.26,1.41-4.24,7.9-11.09,10-15.56.16-1.24-.05-.79-.9-.9-2.96-.4-8.69,1.15-10.35-2.44-3.22-6.98,13.26-6.04,16.77-5.21,11.35,2.69-5.23,18.72-6.74,24.08Z" style="fill:#060605;"/><path d="M146.51,76.21h9.43c2.84,0,4.22,6.1.48,7.17-1.63.47-13.03.41-15.05.09-2.31-.36-3.94-2.21-4.03-4.54-.18-4.41,9.5-14.88,11-19.76h-10.04c-1.67,0-3.94-5.99,1.34-7.17,2.09-.47,10.97-.43,13.22-.09,2.88.44,4.67,2.17,4.66,5.13-.01,4.47-9.08,14.48-11.01,19.17Z" style="fill:#080808;"/><path d="M118.83,6.85c-2.37-.69-2.86-5.76.74-6.56,2.04-.45,14.91-.4,16.46.32,1.43.66,2.64,3.48,2.31,5.04-.93,4.42-8.65,12.74-10.68,17.34-.16,1.24.05.79.89.9,3.11.42,10.25-1.26,10.66,3.41.12,1.41-.47,2.97-1.84,3.57s-14.18.59-15.98.19c-2.97-.66-4.05-3.78-3.14-6.53,1.68-5.08,9.18-11.95,10.62-17.68-2.66-.49-7.75.66-10.04,0Z" style="fill:#050505;"/><path d="M27.25,92.64c-2.16.05-3.31-1.31-3.62-3.39-.34-2.29.87-10.49,1.34-13.19,4.05-23.04,17.77-45.11,36.41-59.12,5.66-4.26,14.78-11.61,20.79-3.85,4.67,6.03.01,11.39-1.69,17.48-5.82,20.81-2.65,42.88,8.95,61.05,1.03,1.61,5.69,8.19,6.85,8.99.56.38.99.7,1.71.47l18.54-7.08c10.26-1.97,21.61,4.69,22.07,15.67,14.25-.89,27.91.46,38.11,11.44,1.1.22,7.87-3.04,9.36-3.82,6.27-3.3,16.57-13.88,23.02-4.79,3.6,5.07.76,11.03-1.27,16.2-3.94,10.04-10.19,19.15-16.91,27.5-.82,1.01-2.94,2.53-3.32,3.37-2.3,5.07,3.36,18.97-3.97,20.68-.14-.31-3.2-1.06-3.64-3.36-1.32-13.41,2.9-30.98-2.95-43.3-3.7-7.79-12.19-14.65-20.8-16.01-.38-.06-.82.04-1.22,0-.15-.59-.7-.57-1.22-.61-4.86-.35-9.7-.92-14.6-.61v26.47c0,3.4-6.04,5.96-7.17,1.09-1.08-10.66,1-22.87-.13-33.34-.45-4.21-3.36-7.74-7.32-9.11-7.3-2.54-14.83,3.49-21.89,5.17,5.37,5.04,10.66,9.7,12.12,17.39l.32,100.08c.21.73.39,1.53.96,2.08,2.01,1.94,16.69.76,20.07.31,6.29-.83,10.58-2.29,14.5-7.71,4.63-6.41,3.62-11.06,3.76-18.45.18-9.66-1.08-22.17-.01-31.35.63-5.39,6.49-5.39,7.28-.56l.03,28.87c1.4-.09,2.87.13,4.26,0,3.3-.31,7.3-1.65,9.76-3.93,2.36-2.19,2.75-5.62,7.28-4.59.26,1.31,2.15,1.56,1.44,4.12-2.15,7.75-15.32,12.76-22.74,11.09,1.07,12.17-6.8,24.88-18.52,28.63-5.29,1.69-20.44,1.83-26.2,1.19-4.57-.51-8-3.76-8.77-8.27l-.32-37.4c-38.32-4.97-71.2-32.94-81.1-70.41-.89-3.38-4.78-15.41.44-15.95,1.5-.15,2.54.24,3.65,1.22.27,1.33.92,2.93,1.22,4.26.84,3.83,1.05,7.29,2.27,11.42,9.69,32.81,39.81,58.15,73.79,62.2.02-4.25-.02-8.53,0-12.78.06-12.44,1.06-27.8.02-39.88-.98-11.39-9.92-14.6-16.76-22.18-18.1-20.02-24.94-47.73-18.63-74.01.87-3.64,3.95-10.07,4.24-12.86.35-3.29-2.19-2.32-3.96-1.46-21.75,10.49-37.48,39.03-41.4,62.04-.56,3.3-.11,10.77-2.61,12.3-.5.3-1.25.6-1.83.61ZM188.5,124.28l-7.3,2.44c2.43,4.92,4.82,9.98,5.47,15.52.21,1.76-.12,3.69,0,5.48.06.91-.47,1.76.91,1.51,7.27-9.5,14.68-20.79,16.13-32.86-.6.01-1.22-.03-1.83,0-2.97.19-10.13,6.25-13.39,7.91Z" style="fill:#060605;"/><path d="M183.63,180.26c.86,1.92-.95,6.76-.61,8.52-4.53-1.03-4.92,2.4-7.28,4.59-2.45,2.28-6.46,3.62-9.76,3.93,2.83-5.05,5.51-7.51,6.08-13.7.93-10.13,1.02-36.67-1.52-45.92-2.21-8.03-6.26-12.82-12.56-17.87-.8-.65-1.83-.85-1.74-2.22,8.61,1.36,17.1,8.22,20.8,16.01,5.85,12.31,1.63,29.89,2.95,43.3.43,2.3,3.5,3.05,3.64,3.36Z" style="fill:#bbd5f9;"/><path d="M136.17,226.5c-3.38.44-18.06,1.63-20.07-.31-.57-.55-.75-1.35-.96-2.08l-.32-100.08c-1.45-7.68-6.74-12.35-12.12-17.39,7.06-1.68,14.59-7.7,21.89-5.17,3.96,1.38,6.87,4.9,7.32,9.11,1.12,10.47-.95,22.68.13,33.34,1.13,4.88,7.17,2.32,7.17-1.09v-26.47c4.9-.31,9.74.26,14.6.61.18.6.7.55,1.22.61.39.04.84-.06,1.22,0-.09,1.36.93,1.57,1.74,2.22,6.3,5.05,10.35,9.84,12.56,17.87,2.54,9.25,2.44,35.8,1.52,45.92-.57,6.19-3.24,8.65-6.08,13.7-1.39.13-2.86-.09-4.26,0l-.03-28.87c-.79-4.83-6.65-4.83-7.28.56-1.07,9.18.2,21.68.01,31.35-9.81-.23-7.27,8.88-9.82,15.44-1.75,4.51-4.81,7.71-8.44,10.73Z" style="fill:#dbe8fa;"/><path d="M201.89,116.37c.61-.04,1.22,0,1.83,0-1.45,12.06-8.86,23.36-16.13,32.86-1.38.25-.84-.6-.91-1.51-.13-1.79.2-3.72,0-5.48-.65-5.54-3.04-10.6-5.47-15.52l7.3-2.44,4.56,6.68c.86,0,8.52-12.45,8.82-14.59Z" style="fill:#e2a02c;"/><path d="M154.43,200.34c-.14,7.39.88,12.05-3.76,18.45-3.92,5.42-8.21,6.88-14.5,7.71,3.63-3.02,6.69-6.22,8.44-10.73,2.54-6.55,0-15.67,9.82-15.44Z" style="fill:#bbd5f9;"/><path d="M201.89,116.37c-.3,2.14-7.97,14.59-8.82,14.59l-4.56-6.68c3.25-1.66,10.42-7.72,13.39-7.91Z" style="fill:#ecbf6a;"/><path d="M155.03,117.59c-.52-.06-1.04,0-1.22-.61.51.04,1.06.01,1.22.61Z" style="fill:#bbd5f9;"/><path d="M30.9,102.99c-1.11-.98-2.15-1.37-3.65-1.22v-9.13c.58-.01,1.32-.3,1.83-.61-.15,3.74,1.09,7.3,1.83,10.95Z" style="fill:#e5a32d;"/><path d="M108.18,168.09c-34.86-4.29-63.68-28.37-76.06-60.85-.29-1.33-.95-2.93-1.22-4.26-.73-3.65-1.98-7.21-1.83-10.95,2.51-1.52,2.05-8.99,2.61-12.3,3.92-23.01,19.65-51.54,41.4-62.04,1.78-.86,4.31-1.82,3.96,1.46-.3,2.79-3.37,9.22-4.24,12.86-6.31,26.28.53,53.99,18.63,74.01,6.85,7.58,15.78,10.79,16.76,22.18,1.04,12.08.04,27.44-.02,39.88Z" style="fill:#ecbf6a;"/><path d="M108.18,168.09c-.02,4.25.02,8.53,0,12.78-33.98-4.05-64.1-29.4-73.79-62.2-1.22-4.12-1.43-7.59-2.27-11.42,12.38,32.48,41.21,56.55,76.06,60.85Z" style="fill:#e5a32d;"/></g></svg>