<?xml version="1.0" encoding="UTF-8"?><svg id="a" xmlns="http://www.w3.org/2000/svg" viewBox="0 0 230.86 230.01"><g id="b"><path d="M105.32,88.29l-37.01,84.8c2.46.68,5.28.67,5.05,4.14-.09,1.32-5.86,14.62-6.87,15.98-2.88,3.87-7.47,3.31-8.7,4.77-1.36,1.6-2.93,8.2-4.45,10.72-5.95,9.87-20.1,5.33-18.65-5.17.33-2.35,3.08-6.18,3.17-7.81.08-1.39-2.93-4.04-2.39-9.15.23-2.13,3.92-11.2,5.43-12.28,2.47-1.77,6.22.63,7.41-2.69l43.16-100.99c2.18-9.02-4.69-20.31,10.49-17.74-.21-1.25.29-6.47,0-6.76-.62-.62-9.01,1.54-9.75-2.48-1.08-5.84,5.46-3.82,8.52-4.26,1.22-.18,1.37.48,1.27-1.3-.23-4.18-16.61-17.82-6.39-19.01,6.06.7,48.65-1.15,49.99,1,2.93,4.7-5.02,7.09-8.3,5.81-.31.23.46.93.85,1.25,1.22,1,14.7,8.55,15.77,8.73,2.66.45,4.03-1.41,6.52-1.61,4.09-.32,19.33,8.07,21.33,11.56,4.8,8.34-2.31,17.33-11.9,15.3-1.7-.36-13.9-7.65-15.36-9.05-4.19-4.01-2.62-8-3.91-10-.68-1.06-18.04-10.06-20.78-11.06-11.42,14.32,6.18,5.42,8.8,9.16,3.92,5.6-6.26,7.03-9.73,5.96-1,9.53,2.36,5.72,8,6.75,4.33.79.8,12.49,2.51,16.05l44.26,104.52c2.32.45,5.01-.66,7.13.87.87.63,4.44,8.85,4.82,10.34,1.83,7.22-2.13,7.99-1.96,11.16s4.12,6.05,3.22,10.83c-1.38,7.34-11.33,9.84-16.6,5.21-2.87-2.53-6.03-13.98-6.95-14.54-2.81-1.73-5.59.79-9.27-5.47-1.02-1.74-5.64-13.05-5.71-14.61-.21-4.73,5.16-2.24,4.04-5.64l-36.86-84.12v86.06c0,.34,5.77-.4,6.61.96.45.72.32,15.28-.06,17-.96,4.31-5.77,4.27-6.42,6.22-.81,2.46.28,6.99-.18,9.94-1.34,8.63-18.39,9.36-20.08-1.69-.42-2.7.56-7.09,0-9.13-.13-.48-5.49-1.65-6.59-7.04-.53-2.61-.59-12.18.43-14.37,1.48-3.19,6.11-1.54,6.11-1.89v-85.22ZM115.42,25.85c-4.2-.03-8.42.01-12.62,0-.43.31,5.56,7.31,6.08,8.66.64,1.67.49,4.66.66,4.83.21.21,4.88.02,5.89,0,5.83-.12,2.03-.56,3.82-5.03.88-2.2,5.33-5.75,6.28-8.46-3.36-.03-6.74.02-10.09,0ZM158.5,46.78c.4.69,13.08,7.51,13.91,7.63,3.15.46,4.88-3.19,2.36-5.83-.58-.61-12.11-7.33-12.85-7.44-2.91-.45-4.68,3.47-3.42,5.64ZM115.42,46.1c-2.24,0-4.5,0-6.73,0-.12,7.73.32,6.66,6.73,6.75,2.24.03,4.5-.02,6.73,0v-6.27c-.12-.88-5.45-.49-6.73-.48ZM115.42,59.6c-3.84.01-12.41-.74-15.42-.03-1.37.32-1.77,6.42-1.4,6.79.59.6,14.41,0,16.83,0,1.89,0,16.71.37,16.84-.49v-6.27c-5.61.02-11.24-.01-16.84,0ZM103.64,73.11c-1.83.21-5-.78-6.32.83l-42.47,99.56c2.3-.15,5.28.86,6.66-1.33l42.13-99.06ZM118.78,73.1h-6.73v100.41h6.73v-100.41ZM133.79,73.24c-1.24-.01-6.39-1.15-5.72,1.09l42.12,99.08,5.79.09-42.2-100.26ZM64.1,180.26h-19.35c.41,1.54-4.83,10.12-1.26,10.12h15.98c1.14,0,5.33-9.46,4.63-10.12ZM116.26,180.26c-3.64-.05-7.3.04-10.94,0,.05,1.86-.37,9.17.97,10.01.69.43,8.19.16,9.97.12,2.11-.05,7.92.6,8.89-.79,1.1-1.58-.02-7.09.37-9.34-3.08-.03-6.18.05-9.26,0ZM170.94,190.38h17.24c3.08,0-1.64-10.12-2.52-10.12h-18.93l4.21,10.12ZM50.64,197.14c-1.48.13-3.24-.29-4.64-.02-1.95.38-5.61,7.7-3.41,9.36,4.89,3.69,6.4-6.62,8.04-9.34ZM118.79,197.13h-5.9c.35,2.15-.83,8.62.79,9.76,5.83,4.1,5.57-6.46,5.11-9.76ZM186.78,197.27c-.56-.35-6.34-.98-5.72,1.09.73,2.47,3.41,9.22,6.27,8.95,4.35-.41.09-9.65-.54-10.04Z" style="fill:#050606;"/><rect x="112.05" y="73.1" width="6.73" height="100.41" style="fill:#616968;"/><path d="M103.64,73.11l-42.13,99.06c-1.38,2.19-4.36,1.18-6.66,1.33l42.47-99.56c1.32-1.61,4.49-.62,6.32-.83Z" style="fill:#626a69;"/><path d="M133.79,73.24l42.2,100.26-5.79-.09-42.12-99.08c-.66-2.24,4.48-1.1,5.72-1.09Z" style="fill:#626a69;"/><path d="M170.94,190.38l-4.21-10.12h18.93c.88,0,5.61,10.12,2.52,10.12h-17.24Z" style="fill:#d4d4e4;"/><path d="M64.1,180.26c.7.67-3.49,10.12-4.63,10.12h-15.98c-3.57,0,1.67-8.58,1.26-10.12h19.35Z" style="fill:#d4d4e4;"/><path d="M158.5,46.78c-1.26-2.17.51-6.09,3.42-5.64.73.11,12.26,6.83,12.85,7.44,2.53,2.64.79,6.29-2.36,5.83-.83-.12-13.51-6.95-13.91-7.63Z" style="fill:#626a69;"/><path d="M115.42,59.6c5.6-.02,11.23.01,16.83,0v6.27c-.12.85-14.94.49-16.83.49v-6.75Z" style="fill:#a2a2aa;"/><path d="M115.42,25.85v13.5c-1,.02-5.68.21-5.89,0-.17-.17-.02-3.16-.66-4.83-.52-1.35-6.5-8.35-6.08-8.66,4.2,0,8.42-.04,12.62,0Z" style="fill:#474747;"/><path d="M115.42,59.6v6.75c-2.41,0-16.24.61-16.83,0-.36-.37.04-6.47,1.4-6.79,3.02-.7,11.59.05,15.42.03Z" style="fill:#d4d4e4;"/><path d="M116.26,180.26v10.12c-1.78.04-9.28.32-9.97-.12-1.34-.84-.91-8.15-.97-10.01,3.64.04,7.3-.05,10.94,0Z" style="fill:#d4d4e4;"/><path d="M116.26,180.26c3.08.05,6.18-.03,9.26,0-.39,2.25.73,7.76-.37,9.34-.97,1.39-6.78.74-8.89.79v-10.12Z" style="fill:#acacb4;"/><path d="M115.42,25.85c3.36.02,6.74-.02,10.09,0-.94,2.71-5.4,6.26-6.28,8.46-1.79,4.48,2.01,4.91-3.82,5.03v-13.5Z" style="fill:#414141;"/><path d="M118.79,197.13c.46,3.3.72,13.87-5.11,9.76-1.62-1.14-.44-7.61-.79-9.76h5.9Z" style="fill:#474747;"/><path d="M50.64,197.14c-1.64,2.72-3.15,13.03-8.04,9.34-2.2-1.66,1.45-8.98,3.41-9.36,1.4-.27,3.16.15,4.64.02Z" style="fill:#474747;"/><path d="M186.78,197.27c.64.39,4.9,9.63.54,10.04-2.85.27-5.53-6.49-6.27-8.95-.61-2.06,5.16-1.43,5.72-1.09Z" style="fill:#474747;"/><path d="M115.42,46.1c1.29,0,6.61-.4,6.74.48v6.27c-2.25-.02-4.51.03-6.74,0v-6.75Z" style="fill:#414141;"/><path d="M115.42,46.1v6.75c-6.41-.09-6.85.98-6.73-6.75,2.24,0,4.5,0,6.73,0Z" style="fill:#474747;"/></g></svg>