<?xml version="1.0" encoding="UTF-8"?><svg id="a" xmlns="http://www.w3.org/2000/svg" viewBox="0 0 234.4 235.86"><g id="b"><path d="M212.79,48.46c-1.4-5.36,7.32-7.79,8.86-3.08.77,2.35-1.96,16.53-3.36,18.65-.35.53-1.06,1.19-1.67,1.37-2.63.76-17.62-2.18-19.38-4.1-3.56-3.91,1.49-9.89,6.42-7.35.59-.53-3.93-5.96-4.55-6.71C152.79-8.65,63.54-.61,25.73,60.71c-48.31,78.35,17.84,176.91,108.19,163.19,52.67-8,91.58-55.31,91.32-108.42,2.19-4.48,8.26-3.67,8.87,1.54,1.58,13.65-4.72,36.72-10.44,49.29C177.58,267.38,27.17,251.67,3.14,143.55-23.13,25.32,123.81-50.36,205.2,39.93c2.09,2.31,4.01,5.76,6.12,7.89.5.5.52.88,1.47.65Z" style="fill:#050505;"/><path d="M46.07,67.97c4.7,3.06-.91,9.39-2.36,12.57-38.2,83.91,61.79,156.96,128.03,98.36,69.59-61.56-1.62-176.13-91.22-135.22-3.17,1.45-9.49,7.07-12.55,2.36-3.57-5.5,6.33-9.69,10.13-11.49,50.82-24.14,111.6,3.61,126.95,57.34,19.77,69.21-44.04,133.22-113.2,113.36-53.63-15.4-81.37-76.22-57.26-127.13,1.8-3.8,5.98-13.72,11.48-10.14Z" style="fill:#040404;"/><path d="M46.07,67.97c1.61-3.26,5.17-5.63,6.21-9.23,1.09,1.46,2.92,2.14,4.7,1.76s3.16-1.77,3.55-3.55-.3-3.62-1.76-4.7c3.57-.75,5.95-4.76,9.21-6.21,3.06,4.71,9.37-.92,12.55-2.36C170.11,2.76,241.33,117.33,171.74,178.89,105.49,237.5,5.51,164.44,43.71,80.53c1.45-3.18,7.06-9.5,2.36-12.57ZM107.22,64.92c3.32.72,8.87-.53,12.47,0,.11.85-.09,1.64-.27,2.47-1.83,8.28-7.82,19.96-8.8,27.75-.88,7.03,6.44,8.51,8.88,2.81,3.59-8.41,8.53-25.29,10.7-34.39.78-3.27,1.79-7.01-2.93-7.74-2.97-.46-17.81-.51-20.52.1-4.99,1.11-3.52,8.15.48,9.01ZM59.29,112.59c-1.84.37-3.94,1.84-4.06,3.86l.23,39.3c1.53,4.66,14.54,3.23,18.32,1.82,4.3-1.6,7.88-5.68,8.65-10.23.68-4.02.64-20.65-.27-24.42-2.34-9.73-14.33-12.05-22.87-10.33ZM107.52,144.75v10.05c0,3.05,7.83,5.78,9,.48.87-3.94.69-27.01.08-31.5-1.99-14.5-25.17-14.95-27.28,1.22-.57,4.37-.77,25.9.08,29.68,1.19,5.3,9,3.99,9,.74v-10.66h9.13ZM127.45,112.54c-1.55.28-3.63,2.46-3.97,4-.63,2.82-.38,13.61.14,16.66.32,1.88,1.4,4.47,2.51,6.02,1.32,1.85,6.01,4.61,6.25,5.32,1.02,3-2.12,15.57,5.74,14.13,6.76-1.24,2.67-11.64,4.41-14.53.45-.74,4.37-2.74,5.78-4.58.88-1.14,1.85-3.06,2.27-4.43,1-3.3,1.39-15.29.65-18.59-.91-4.08-6.12-5.61-8.67-1.63-3.02,4.71,2.66,21.23-5.46,20.69s.05-18.81-6.82-22.46c-1.03-.55-1.6-.82-2.82-.6ZM179.75,115.68c-.68-.73-3.63-1.98-4.7-2.3-15.77-4.7-24.87,15.61-12.11,24.32,3.63,2.48,12.34,2.82,9.38,9.47-2.39,5.38-11.24-3.2-13.82,3.22-1.93,4.8,2.71,6.79,6.6,7.69,15.55,3.6,23.76-16.8,10.3-24.93-3.26-1.97-12.05-3.28-8.48-9.07,2.54-4.11,6.41-.56,9.69-.6,4.09-.05,5.78-4.97,3.15-7.8Z" style="fill:#b077d1;"/><ellipse cx="55.99" cy="55.96" rx="4.63" ry="4.64" style="fill:#070509;"/><path d="M59.29,112.59c8.54-1.72,20.53.6,22.87,10.33.91,3.77.95,20.4.27,24.42-.77,4.55-4.35,8.63-8.65,10.23-3.78,1.41-16.79,2.84-18.32-1.82l-.23-39.3c.12-2.02,2.22-3.49,4.06-3.86ZM64.32,149.01c3.25-.07,7.63,1.02,8.86-3.01.74-2.44.59-15.53.3-18.65-.55-6.01-4.15-5.31-9.16-5.15v26.81Z" style="fill:#020203;"/><path d="M107.52,144.75h-9.13v10.66c0,3.25-7.81,4.56-9-.74-.85-3.78-.65-25.31-.08-29.68,2.11-16.17,25.29-15.72,27.28-1.22.62,4.5.79,27.56-.08,31.5-1.17,5.3-9,2.57-9-.48v-10.05ZM107.52,135.61v-10.66c0-2.45-4.9-3.47-7.04-2.17-.41.25-2.09,2.51-2.09,2.78v10.05h9.13Z" style="fill:#020203;"/><path d="M127.45,112.54c1.22-.22,1.79.05,2.82.6,6.86,3.65-1.7,21.9,6.82,22.46s2.43-15.98,5.46-20.69c2.55-3.98,7.76-2.45,8.67,1.63.74,3.3.35,15.29-.65,18.59-.42,1.38-1.39,3.29-2.27,4.43-1.4,1.83-5.33,3.83-5.78,4.58-1.73,2.89,2.35,13.29-4.41,14.53-7.85,1.44-4.72-11.13-5.74-14.13-.24-.71-4.93-3.47-6.25-5.32-1.11-1.55-2.18-4.14-2.51-6.02-.53-3.06-.77-13.84-.14-16.66.34-1.54,2.42-3.71,3.97-4Z" style="fill:#070509;"/><path d="M179.75,115.68c2.63,2.82.95,7.74-3.15,7.8-3.28.04-7.16-3.5-9.69.6-3.57,5.78,5.22,7.1,8.48,9.07,13.46,8.13,5.25,28.53-10.3,24.93-3.89-.9-8.53-2.9-6.6-7.69,2.58-6.42,11.43,2.16,13.82-3.22,2.96-6.65-5.75-6.99-9.38-9.47-12.75-8.71-3.66-29.02,12.11-24.32,1.07.32,4.02,1.58,4.7,2.3Z" style="fill:#040304;"/><path d="M107.22,64.92c-4-.86-5.47-7.9-.48-9.01,2.71-.6,17.55-.55,20.52-.1,4.72.73,3.71,4.47,2.93,7.74-2.17,9.1-7.12,25.98-10.7,34.39-2.43,5.7-9.76,4.22-8.88-2.81.98-7.79,6.97-19.47,8.8-27.75.18-.83.39-1.61.27-2.47-3.61-.53-9.15.72-12.47,0Z" style="fill:#030204;"/><path d="M64.32,149.01v-26.81c5-.16,8.6-.86,9.16,5.15.29,3.12.44,16.21-.3,18.65-1.23,4.04-5.6,2.95-8.86,3.01Z" style="fill:#b077d1;"/><path d="M107.52,135.61h-9.13v-10.05c0-.27,1.67-2.53,2.09-2.78,2.14-1.29,7.04-.28,7.04,2.17v10.66Z" style="fill:#ae76cf;"/></g></svg>